ISO-10303-21;
HEADER;
/* Generated by software containing ST-Developer
 * from STEP Tools, Inc. (www.steptools.com) 
 */
/* OPTION: using custom renumber hook */

FILE_DESCRIPTION(
/* description */ ('STEP AP242 Edition 2',
'CAx-IF Rec.Pracs.---Representation and Presentation of Product Manufa
cturing Information (PMI)---4.0---2014-10-13',
'CAx-IF Rec.Pracs.---3D Tessellated Geometry---0.4---2014-09-14','2;1',
'CAx-IF Rec.Pracs.---User Defined Attributes---1.5---2016-08-15'),
/* implementation_level */ '2;1');

FILE_NAME(
/* name */ '6a682e078ce625604a90bf1e',
/* time_stamp */ '2026-07-28T04:20:24Z',
/* author */ (''),
/* organization */ (''),
/* preprocessor_version */ 'ST-DEVELOPER v20',
/* originating_system */ 'ONSHAPE BY PTC INC, 1.218',
/* authorisation */ '  ');

FILE_SCHEMA (('AP242_MANAGED_MODEL_BASED_3D_ENGINEERING_MIM_LF { 1 0 10303 442 3 1 4 }'));
ENDSEC;

DATA;
#10=CIRCLE('',#742,0.0025);
#11=CIRCLE('',#744,0.0025);
#12=CONTEXT_DEPENDENT_SHAPE_REPRESENTATION(#16,#1158);
#13=CONTEXT_DEPENDENT_SHAPE_REPRESENTATION(#17,#1160);
#14=NEXT_ASSEMBLY_USAGE_OCCURRENCE('NAUO1','Part 1','Part 1',#1161,#1162,
'');
#15=NEXT_ASSEMBLY_USAGE_OCCURRENCE('NAUO2','Part 2','Part 2',#1161,#1163,
'');
#16=(
REPRESENTATION_RELATIONSHIP(' ',' ',#694,#693)
REPRESENTATION_RELATIONSHIP_WITH_TRANSFORMATION(#18)
SHAPE_REPRESENTATION_RELATIONSHIP()
);
#17=(
REPRESENTATION_RELATIONSHIP(' ',' ',#695,#693)
REPRESENTATION_RELATIONSHIP_WITH_TRANSFORMATION(#19)
SHAPE_REPRESENTATION_RELATIONSHIP()
);
#18=ITEM_DEFINED_TRANSFORMATION(' ',' ',#696,#740);
#19=ITEM_DEFINED_TRANSFORMATION(' ',' ',#696,#759);
#20=SHAPE_REPRESENTATION_RELATIONSHIP('','',#694,#22);
#21=SHAPE_REPRESENTATION_RELATIONSHIP('','',#695,#23);
#22=ADVANCED_BREP_SHAPE_REPRESENTATION('',(#688),#1148);
#23=ADVANCED_BREP_SHAPE_REPRESENTATION('',(#689),#1149);
#24=CYLINDRICAL_SURFACE('',#718,0.002);
#25=CYLINDRICAL_SURFACE('',#719,0.002);
#26=CYLINDRICAL_SURFACE('',#720,0.002);
#27=CYLINDRICAL_SURFACE('',#721,0.002);
#28=CYLINDRICAL_SURFACE('',#722,0.06);
#29=CYLINDRICAL_SURFACE('',#735,0.0002);
#30=CYLINDRICAL_SURFACE('',#736,0.0002);
#31=CYLINDRICAL_SURFACE('',#737,0.0002);
#32=CYLINDRICAL_SURFACE('',#738,0.0002);
#33=CYLINDRICAL_SURFACE('',#739,0.0618);
#34=CYLINDRICAL_SURFACE('',#743,0.0025);
#35=ELLIPSE('',#698,0.0020219730963013,0.002);
#36=ELLIPSE('',#699,0.0020219730963013,0.002);
#37=ELLIPSE('',#700,0.0020219730963013,0.002);
#38=ELLIPSE('',#701,0.0020219730963013,0.002);
#39=ELLIPSE('',#702,0.00020219730963013,0.0002);
#40=ELLIPSE('',#703,0.00020219730963013,0.0002);
#41=ELLIPSE('',#704,0.00020219730963013,0.0002);
#42=ELLIPSE('',#705,0.00020219730963013,0.0002);
#43=ELLIPSE('',#707,0.0020219730963013,0.002);
#44=ELLIPSE('',#708,0.0020219730963013,0.002);
#45=ELLIPSE('',#711,0.060330496773811,0.06);
#46=ELLIPSE('',#714,0.060330496773811,0.06);
#47=ELLIPSE('',#716,0.0020219730963013,0.002);
#48=ELLIPSE('',#717,0.0020219730963013,0.002);
#49=ELLIPSE('',#724,0.00020219730963013,0.0002);
#50=ELLIPSE('',#725,0.00020219730963013,0.0002);
#51=ELLIPSE('',#728,0.0621404116770253,0.0618);
#52=ELLIPSE('',#731,0.0621404116770253,0.0618);
#53=ELLIPSE('',#733,0.00020219730963013,0.0002);
#54=ELLIPSE('',#734,0.00020219730963013,0.0002);
#55=ORIENTED_EDGE('',*,*,#235,.F.);
#56=ORIENTED_EDGE('',*,*,#236,.T.);
#57=ORIENTED_EDGE('',*,*,#237,.F.);
#58=ORIENTED_EDGE('',*,*,#238,.T.);
#59=ORIENTED_EDGE('',*,*,#239,.F.);
#60=ORIENTED_EDGE('',*,*,#240,.T.);
#61=ORIENTED_EDGE('',*,*,#241,.F.);
#62=ORIENTED_EDGE('',*,*,#242,.T.);
#63=ORIENTED_EDGE('',*,*,#243,.F.);
#64=ORIENTED_EDGE('',*,*,#244,.T.);
#65=ORIENTED_EDGE('',*,*,#245,.F.);
#66=ORIENTED_EDGE('',*,*,#246,.T.);
#67=ORIENTED_EDGE('',*,*,#247,.F.);
#68=ORIENTED_EDGE('',*,*,#248,.T.);
#69=ORIENTED_EDGE('',*,*,#249,.F.);
#70=ORIENTED_EDGE('',*,*,#250,.T.);
#71=ORIENTED_EDGE('',*,*,#251,.T.);
#72=ORIENTED_EDGE('',*,*,#252,.T.);
#73=ORIENTED_EDGE('',*,*,#253,.T.);
#74=ORIENTED_EDGE('',*,*,#254,.T.);
#75=ORIENTED_EDGE('',*,*,#254,.F.);
#76=ORIENTED_EDGE('',*,*,#255,.T.);
#77=ORIENTED_EDGE('',*,*,#235,.T.);
#78=ORIENTED_EDGE('',*,*,#256,.T.);
#79=ORIENTED_EDGE('',*,*,#257,.T.);
#80=ORIENTED_EDGE('',*,*,#258,.T.);
#81=ORIENTED_EDGE('',*,*,#259,.T.);
#82=ORIENTED_EDGE('',*,*,#241,.T.);
#83=ORIENTED_EDGE('',*,*,#239,.T.);
#84=ORIENTED_EDGE('',*,*,#260,.T.);
#85=ORIENTED_EDGE('',*,*,#261,.F.);
#86=ORIENTED_EDGE('',*,*,#262,.T.);
#87=ORIENTED_EDGE('',*,*,#263,.T.);
#88=ORIENTED_EDGE('',*,*,#264,.T.);
#89=ORIENTED_EDGE('',*,*,#265,.T.);
#90=ORIENTED_EDGE('',*,*,#237,.T.);
#91=ORIENTED_EDGE('',*,*,#266,.F.);
#92=ORIENTED_EDGE('',*,*,#267,.T.);
#93=ORIENTED_EDGE('',*,*,#261,.T.);
#94=ORIENTED_EDGE('',*,*,#268,.T.);
#95=ORIENTED_EDGE('',*,*,#236,.F.);
#96=ORIENTED_EDGE('',*,*,#255,.F.);
#97=ORIENTED_EDGE('',*,*,#253,.F.);
#98=ORIENTED_EDGE('',*,*,#263,.F.);
#99=ORIENTED_EDGE('',*,*,#238,.F.);
#100=ORIENTED_EDGE('',*,*,#265,.F.);
#101=ORIENTED_EDGE('',*,*,#268,.F.);
#102=ORIENTED_EDGE('',*,*,#260,.F.);
#103=ORIENTED_EDGE('',*,*,#242,.F.);
#104=ORIENTED_EDGE('',*,*,#259,.F.);
#105=ORIENTED_EDGE('',*,*,#251,.F.);
#106=ORIENTED_EDGE('',*,*,#256,.F.);
#107=ORIENTED_EDGE('',*,*,#240,.F.);
#108=ORIENTED_EDGE('',*,*,#262,.F.);
#109=ORIENTED_EDGE('',*,*,#267,.F.);
#110=ORIENTED_EDGE('',*,*,#257,.F.);
#111=ORIENTED_EDGE('',*,*,#266,.T.);
#112=ORIENTED_EDGE('',*,*,#264,.F.);
#113=ORIENTED_EDGE('',*,*,#252,.F.);
#114=ORIENTED_EDGE('',*,*,#258,.F.);
#115=ORIENTED_EDGE('',*,*,#269,.F.);
#116=ORIENTED_EDGE('',*,*,#270,.F.);
#117=ORIENTED_EDGE('',*,*,#271,.F.);
#118=ORIENTED_EDGE('',*,*,#272,.F.);
#119=ORIENTED_EDGE('',*,*,#270,.T.);
#120=ORIENTED_EDGE('',*,*,#273,.F.);
#121=ORIENTED_EDGE('',*,*,#244,.F.);
#122=ORIENTED_EDGE('',*,*,#274,.F.);
#123=ORIENTED_EDGE('',*,*,#275,.F.);
#124=ORIENTED_EDGE('',*,*,#246,.F.);
#125=ORIENTED_EDGE('',*,*,#276,.F.);
#126=ORIENTED_EDGE('',*,*,#277,.F.);
#127=ORIENTED_EDGE('',*,*,#248,.F.);
#128=ORIENTED_EDGE('',*,*,#278,.F.);
#129=ORIENTED_EDGE('',*,*,#279,.T.);
#130=ORIENTED_EDGE('',*,*,#280,.F.);
#131=ORIENTED_EDGE('',*,*,#281,.F.);
#132=ORIENTED_EDGE('',*,*,#250,.F.);
#133=ORIENTED_EDGE('',*,*,#282,.F.);
#134=ORIENTED_EDGE('',*,*,#283,.F.);
#135=ORIENTED_EDGE('',*,*,#284,.T.);
#136=ORIENTED_EDGE('',*,*,#285,.F.);
#137=ORIENTED_EDGE('',*,*,#279,.F.);
#138=ORIENTED_EDGE('',*,*,#286,.F.);
#139=ORIENTED_EDGE('',*,*,#243,.T.);
#140=ORIENTED_EDGE('',*,*,#281,.T.);
#141=ORIENTED_EDGE('',*,*,#271,.T.);
#142=ORIENTED_EDGE('',*,*,#274,.T.);
#143=ORIENTED_EDGE('',*,*,#249,.T.);
#144=ORIENTED_EDGE('',*,*,#280,.T.);
#145=ORIENTED_EDGE('',*,*,#285,.T.);
#146=ORIENTED_EDGE('',*,*,#282,.T.);
#147=ORIENTED_EDGE('',*,*,#245,.T.);
#148=ORIENTED_EDGE('',*,*,#273,.T.);
#149=ORIENTED_EDGE('',*,*,#269,.T.);
#150=ORIENTED_EDGE('',*,*,#276,.T.);
#151=ORIENTED_EDGE('',*,*,#247,.T.);
#152=ORIENTED_EDGE('',*,*,#275,.T.);
#153=ORIENTED_EDGE('',*,*,#286,.T.);
#154=ORIENTED_EDGE('',*,*,#278,.T.);
#155=ORIENTED_EDGE('',*,*,#284,.F.);
#156=ORIENTED_EDGE('',*,*,#277,.T.);
#157=ORIENTED_EDGE('',*,*,#272,.T.);
#158=ORIENTED_EDGE('',*,*,#283,.T.);
#159=ORIENTED_EDGE('',*,*,#287,.F.);
#160=ORIENTED_EDGE('',*,*,#288,.T.);
#161=ORIENTED_EDGE('',*,*,#289,.T.);
#162=ORIENTED_EDGE('',*,*,#290,.T.);
#163=ORIENTED_EDGE('',*,*,#291,.T.);
#164=ORIENTED_EDGE('',*,*,#292,.T.);
#165=ORIENTED_EDGE('',*,*,#293,.T.);
#166=ORIENTED_EDGE('',*,*,#294,.F.);
#167=ORIENTED_EDGE('',*,*,#295,.T.);
#168=ORIENTED_EDGE('',*,*,#296,.F.);
#169=ORIENTED_EDGE('',*,*,#297,.T.);
#170=ORIENTED_EDGE('',*,*,#298,.T.);
#171=ORIENTED_EDGE('',*,*,#299,.T.);
#172=ORIENTED_EDGE('',*,*,#300,.F.);
#173=ORIENTED_EDGE('',*,*,#287,.T.);
#174=ORIENTED_EDGE('',*,*,#300,.T.);
#175=ORIENTED_EDGE('',*,*,#288,.F.);
#176=ORIENTED_EDGE('',*,*,#301,.F.);
#177=ORIENTED_EDGE('',*,*,#302,.T.);
#178=ORIENTED_EDGE('',*,*,#303,.T.);
#179=ORIENTED_EDGE('',*,*,#289,.F.);
#180=ORIENTED_EDGE('',*,*,#303,.F.);
#181=ORIENTED_EDGE('',*,*,#304,.T.);
#182=ORIENTED_EDGE('',*,*,#305,.T.);
#183=ORIENTED_EDGE('',*,*,#290,.F.);
#184=ORIENTED_EDGE('',*,*,#305,.F.);
#185=ORIENTED_EDGE('',*,*,#306,.T.);
#186=ORIENTED_EDGE('',*,*,#307,.T.);
#187=ORIENTED_EDGE('',*,*,#291,.F.);
#188=ORIENTED_EDGE('',*,*,#307,.F.);
#189=ORIENTED_EDGE('',*,*,#308,.T.);
#190=ORIENTED_EDGE('',*,*,#309,.T.);
#191=ORIENTED_EDGE('',*,*,#292,.F.);
#192=ORIENTED_EDGE('',*,*,#309,.F.);
#193=ORIENTED_EDGE('',*,*,#310,.T.);
#194=ORIENTED_EDGE('',*,*,#311,.T.);
#195=ORIENTED_EDGE('',*,*,#293,.F.);
#196=ORIENTED_EDGE('',*,*,#311,.F.);
#197=ORIENTED_EDGE('',*,*,#312,.T.);
#198=ORIENTED_EDGE('',*,*,#313,.T.);
#199=ORIENTED_EDGE('',*,*,#294,.T.);
#200=ORIENTED_EDGE('',*,*,#313,.F.);
#201=ORIENTED_EDGE('',*,*,#314,.F.);
#202=ORIENTED_EDGE('',*,*,#315,.T.);
#203=ORIENTED_EDGE('',*,*,#295,.F.);
#204=ORIENTED_EDGE('',*,*,#315,.F.);
#205=ORIENTED_EDGE('',*,*,#316,.T.);
#206=ORIENTED_EDGE('',*,*,#317,.T.);
#207=ORIENTED_EDGE('',*,*,#296,.T.);
#208=ORIENTED_EDGE('',*,*,#317,.F.);
#209=ORIENTED_EDGE('',*,*,#318,.F.);
#210=ORIENTED_EDGE('',*,*,#319,.T.);
#211=ORIENTED_EDGE('',*,*,#297,.F.);
#212=ORIENTED_EDGE('',*,*,#319,.F.);
#213=ORIENTED_EDGE('',*,*,#320,.T.);
#214=ORIENTED_EDGE('',*,*,#321,.T.);
#215=ORIENTED_EDGE('',*,*,#298,.F.);
#216=ORIENTED_EDGE('',*,*,#321,.F.);
#217=ORIENTED_EDGE('',*,*,#322,.T.);
#218=ORIENTED_EDGE('',*,*,#323,.T.);
#219=ORIENTED_EDGE('',*,*,#299,.F.);
#220=ORIENTED_EDGE('',*,*,#323,.F.);
#221=ORIENTED_EDGE('',*,*,#324,.T.);
#222=ORIENTED_EDGE('',*,*,#301,.T.);
#223=ORIENTED_EDGE('',*,*,#302,.F.);
#224=ORIENTED_EDGE('',*,*,#324,.F.);
#225=ORIENTED_EDGE('',*,*,#322,.F.);
#226=ORIENTED_EDGE('',*,*,#320,.F.);
#227=ORIENTED_EDGE('',*,*,#318,.T.);
#228=ORIENTED_EDGE('',*,*,#316,.F.);
#229=ORIENTED_EDGE('',*,*,#314,.T.);
#230=ORIENTED_EDGE('',*,*,#312,.F.);
#231=ORIENTED_EDGE('',*,*,#310,.F.);
#232=ORIENTED_EDGE('',*,*,#308,.F.);
#233=ORIENTED_EDGE('',*,*,#306,.F.);
#234=ORIENTED_EDGE('',*,*,#304,.F.);
#235=EDGE_CURVE('',#325,#326,#383,.T.);
#236=EDGE_CURVE('',#325,#327,#35,.F.);
#237=EDGE_CURVE('',#328,#327,#384,.T.);
#238=EDGE_CURVE('',#328,#329,#36,.F.);
#239=EDGE_CURVE('',#330,#329,#385,.T.);
#240=EDGE_CURVE('',#330,#331,#37,.F.);
#241=EDGE_CURVE('',#332,#331,#386,.T.);
#242=EDGE_CURVE('',#332,#326,#38,.F.);
#243=EDGE_CURVE('',#333,#334,#39,.F.);
#244=EDGE_CURVE('',#333,#335,#387,.T.);
#245=EDGE_CURVE('',#336,#335,#40,.F.);
#246=EDGE_CURVE('',#336,#337,#388,.T.);
#247=EDGE_CURVE('',#338,#337,#41,.F.);
#248=EDGE_CURVE('',#338,#339,#389,.T.);
#249=EDGE_CURVE('',#340,#339,#42,.F.);
#250=EDGE_CURVE('',#340,#334,#390,.T.);
#251=EDGE_CURVE('',#341,#342,#43,.T.);
#252=EDGE_CURVE('',#342,#343,#391,.T.);
#253=EDGE_CURVE('',#343,#344,#44,.T.);
#254=EDGE_CURVE('',#344,#341,#392,.T.);
#255=EDGE_CURVE('',#344,#325,#393,.F.);
#256=EDGE_CURVE('',#326,#341,#394,.T.);
#257=EDGE_CURVE('',#331,#345,#395,.T.);
#258=EDGE_CURVE('',#345,#342,#45,.F.);
#259=EDGE_CURVE('',#342,#332,#396,.F.);
#260=EDGE_CURVE('',#329,#346,#397,.T.);
#261=EDGE_CURVE('',#347,#346,#398,.T.);
#262=EDGE_CURVE('',#347,#330,#399,.F.);
#263=EDGE_CURVE('',#327,#343,#400,.T.);
#264=EDGE_CURVE('',#343,#348,#46,.F.);
#265=EDGE_CURVE('',#348,#328,#401,.F.);
#266=EDGE_CURVE('',#345,#348,#402,.T.);
#267=EDGE_CURVE('',#345,#347,#47,.T.);
#268=EDGE_CURVE('',#346,#348,#48,.T.);
#269=EDGE_CURVE('',#349,#350,#49,.T.);
#270=EDGE_CURVE('',#351,#349,#403,.T.);
#271=EDGE_CURVE('',#352,#351,#50,.T.);
#272=EDGE_CURVE('',#350,#352,#404,.T.);
#273=EDGE_CURVE('',#335,#349,#405,.T.);
#274=EDGE_CURVE('',#351,#333,#406,.F.);
#275=EDGE_CURVE('',#337,#353,#407,.T.);
#276=EDGE_CURVE('',#350,#336,#408,.F.);
#277=EDGE_CURVE('',#353,#350,#51,.F.);
#278=EDGE_CURVE('',#354,#338,#409,.F.);
#279=EDGE_CURVE('',#354,#355,#410,.T.);
#280=EDGE_CURVE('',#339,#355,#411,.T.);
#281=EDGE_CURVE('',#334,#352,#412,.T.);
#282=EDGE_CURVE('',#356,#340,#413,.F.);
#283=EDGE_CURVE('',#352,#356,#52,.F.);
#284=EDGE_CURVE('',#353,#356,#414,.T.);
#285=EDGE_CURVE('',#355,#356,#53,.T.);
#286=EDGE_CURVE('',#353,#354,#54,.T.);
#287=EDGE_CURVE('',#357,#357,#10,.T.);
#288=EDGE_CURVE('',#358,#359,#415,.T.);
#289=EDGE_CURVE('',#359,#360,#416,.T.);
#290=EDGE_CURVE('',#360,#361,#417,.T.);
#291=EDGE_CURVE('',#361,#362,#418,.T.);
#292=EDGE_CURVE('',#362,#363,#419,.T.);
#293=EDGE_CURVE('',#363,#364,#420,.T.);
#294=EDGE_CURVE('',#365,#364,#421,.T.);
#295=EDGE_CURVE('',#365,#366,#422,.T.);
#296=EDGE_CURVE('',#367,#366,#423,.T.);
#297=EDGE_CURVE('',#367,#368,#424,.T.);
#298=EDGE_CURVE('',#368,#369,#425,.T.);
#299=EDGE_CURVE('',#369,#358,#426,.T.);
#300=EDGE_CURVE('',#370,#370,#11,.T.);
#301=EDGE_CURVE('',#371,#358,#427,.T.);
#302=EDGE_CURVE('',#371,#372,#428,.T.);
#303=EDGE_CURVE('',#372,#359,#429,.T.);
#304=EDGE_CURVE('',#372,#373,#430,.T.);
#305=EDGE_CURVE('',#373,#360,#431,.T.);
#306=EDGE_CURVE('',#373,#374,#432,.T.);
#307=EDGE_CURVE('',#374,#361,#433,.T.);
#308=EDGE_CURVE('',#374,#375,#434,.T.);
#309=EDGE_CURVE('',#375,#362,#435,.T.);
#310=EDGE_CURVE('',#375,#376,#436,.T.);
#311=EDGE_CURVE('',#376,#363,#437,.T.);
#312=EDGE_CURVE('',#376,#377,#438,.T.);
#313=EDGE_CURVE('',#377,#364,#439,.T.);
#314=EDGE_CURVE('',#378,#377,#440,.T.);
#315=EDGE_CURVE('',#378,#365,#441,.T.);
#316=EDGE_CURVE('',#378,#379,#442,.T.);
#317=EDGE_CURVE('',#379,#366,#443,.T.);
#318=EDGE_CURVE('',#380,#379,#444,.T.);
#319=EDGE_CURVE('',#380,#367,#445,.T.);
#320=EDGE_CURVE('',#380,#381,#446,.T.);
#321=EDGE_CURVE('',#381,#368,#447,.T.);
#322=EDGE_CURVE('',#381,#382,#448,.T.);
#323=EDGE_CURVE('',#382,#369,#449,.T.);
#324=EDGE_CURVE('',#382,#371,#450,.T.);
#325=VERTEX_POINT('',#959);
#326=VERTEX_POINT('',#960);
#327=VERTEX_POINT('',#962);
#328=VERTEX_POINT('',#964);
#329=VERTEX_POINT('',#966);
#330=VERTEX_POINT('',#968);
#331=VERTEX_POINT('',#970);
#332=VERTEX_POINT('',#972);
#333=VERTEX_POINT('',#975);
#334=VERTEX_POINT('',#976);
#335=VERTEX_POINT('',#978);
#336=VERTEX_POINT('',#980);
#337=VERTEX_POINT('',#982);
#338=VERTEX_POINT('',#984);
#339=VERTEX_POINT('',#986);
#340=VERTEX_POINT('',#988);
#341=VERTEX_POINT('',#992);
#342=VERTEX_POINT('',#993);
#343=VERTEX_POINT('',#995);
#344=VERTEX_POINT('',#997);
#345=VERTEX_POINT('',#1004);
#346=VERTEX_POINT('',#1009);
#347=VERTEX_POINT('',#1011);
#348=VERTEX_POINT('',#1016);
#349=VERTEX_POINT('',#1029);
#350=VERTEX_POINT('',#1030);
#351=VERTEX_POINT('',#1032);
#352=VERTEX_POINT('',#1034);
#353=VERTEX_POINT('',#1041);
#354=VERTEX_POINT('',#1046);
#355=VERTEX_POINT('',#1048);
#356=VERTEX_POINT('',#1053);
#357=VERTEX_POINT('',#1067);
#358=VERTEX_POINT('',#1069);
#359=VERTEX_POINT('',#1070);
#360=VERTEX_POINT('',#1072);
#361=VERTEX_POINT('',#1074);
#362=VERTEX_POINT('',#1076);
#363=VERTEX_POINT('',#1078);
#364=VERTEX_POINT('',#1080);
#365=VERTEX_POINT('',#1082);
#366=VERTEX_POINT('',#1084);
#367=VERTEX_POINT('',#1086);
#368=VERTEX_POINT('',#1088);
#369=VERTEX_POINT('',#1090);
#370=VERTEX_POINT('',#1094);
#371=VERTEX_POINT('',#1098);
#372=VERTEX_POINT('',#1100);
#373=VERTEX_POINT('',#1104);
#374=VERTEX_POINT('',#1108);
#375=VERTEX_POINT('',#1112);
#376=VERTEX_POINT('',#1116);
#377=VERTEX_POINT('',#1120);
#378=VERTEX_POINT('',#1124);
#379=VERTEX_POINT('',#1128);
#380=VERTEX_POINT('',#1132);
#381=VERTEX_POINT('',#1136);
#382=VERTEX_POINT('',#1140);
#383=LINE('',#958,#451);
#384=LINE('',#963,#452);
#385=LINE('',#967,#453);
#386=LINE('',#971,#454);
#387=LINE('',#977,#455);
#388=LINE('',#981,#456);
#389=LINE('',#985,#457);
#390=LINE('',#989,#458);
#391=LINE('',#994,#459);
#392=LINE('',#998,#460);
#393=LINE('',#1000,#461);
#394=LINE('',#1001,#462);
#395=LINE('',#1003,#463);
#396=LINE('',#1006,#464);
#397=LINE('',#1008,#465);
#398=LINE('',#1010,#466);
#399=LINE('',#1012,#467);
#400=LINE('',#1014,#468);
#401=LINE('',#1017,#469);
#402=LINE('',#1019,#470);
#403=LINE('',#1031,#471);
#404=LINE('',#1035,#472);
#405=LINE('',#1037,#473);
#406=LINE('',#1038,#474);
#407=LINE('',#1040,#475);
#408=LINE('',#1042,#476);
#409=LINE('',#1045,#477);
#410=LINE('',#1047,#478);
#411=LINE('',#1049,#479);
#412=LINE('',#1051,#480);
#413=LINE('',#1052,#481);
#414=LINE('',#1056,#482);
#415=LINE('',#1068,#483);
#416=LINE('',#1071,#484);
#417=LINE('',#1073,#485);
#418=LINE('',#1075,#486);
#419=LINE('',#1077,#487);
#420=LINE('',#1079,#488);
#421=LINE('',#1081,#489);
#422=LINE('',#1083,#490);
#423=LINE('',#1085,#491);
#424=LINE('',#1087,#492);
#425=LINE('',#1089,#493);
#426=LINE('',#1091,#494);
#427=LINE('',#1097,#495);
#428=LINE('',#1099,#496);
#429=LINE('',#1101,#497);
#430=LINE('',#1103,#498);
#431=LINE('',#1105,#499);
#432=LINE('',#1107,#500);
#433=LINE('',#1109,#501);
#434=LINE('',#1111,#502);
#435=LINE('',#1113,#503);
#436=LINE('',#1115,#504);
#437=LINE('',#1117,#505);
#438=LINE('',#1119,#506);
#439=LINE('',#1121,#507);
#440=LINE('',#1123,#508);
#441=LINE('',#1125,#509);
#442=LINE('',#1127,#510);
#443=LINE('',#1129,#511);
#444=LINE('',#1131,#512);
#445=LINE('',#1133,#513);
#446=LINE('',#1135,#514);
#447=LINE('',#1137,#515);
#448=LINE('',#1139,#516);
#449=LINE('',#1141,#517);
#450=LINE('',#1143,#518);
#451=VECTOR('',#764,1.);
#452=VECTOR('',#767,1.);
#453=VECTOR('',#770,1.);
#454=VECTOR('',#773,1.);
#455=VECTOR('',#778,1.);
#456=VECTOR('',#781,1.);
#457=VECTOR('',#784,1.);
#458=VECTOR('',#787,1.);
#459=VECTOR('',#792,1.);
#460=VECTOR('',#795,1.);
#461=VECTOR('',#798,1.);
#462=VECTOR('',#799,1.);
#463=VECTOR('',#802,1.);
#464=VECTOR('',#805,1.);
#465=VECTOR('',#808,1.);
#466=VECTOR('',#809,1.);
#467=VECTOR('',#810,1.);
#468=VECTOR('',#813,1.);
#469=VECTOR('',#816,1.);
#470=VECTOR('',#819,1.);
#471=VECTOR('',#838,1.);
#472=VECTOR('',#841,1.);
#473=VECTOR('',#844,1.);
#474=VECTOR('',#845,1.);
#475=VECTOR('',#848,1.);
#476=VECTOR('',#849,1.);
#477=VECTOR('',#854,1.);
#478=VECTOR('',#855,1.);
#479=VECTOR('',#856,1.);
#480=VECTOR('',#859,1.);
#481=VECTOR('',#860,1.);
#482=VECTOR('',#865,1.);
#483=VECTOR('',#886,1.);
#484=VECTOR('',#887,1.);
#485=VECTOR('',#888,1.);
#486=VECTOR('',#889,1.);
#487=VECTOR('',#890,1.);
#488=VECTOR('',#891,1.);
#489=VECTOR('',#892,1.);
#490=VECTOR('',#893,1.);
#491=VECTOR('',#894,1.);
#492=VECTOR('',#895,1.);
#493=VECTOR('',#896,1.);
#494=VECTOR('',#897,1.);
#495=VECTOR('',#906,1.);
#496=VECTOR('',#907,1.);
#497=VECTOR('',#908,1.);
#498=VECTOR('',#911,1.);
#499=VECTOR('',#912,1.);
#500=VECTOR('',#915,1.);
#501=VECTOR('',#916,1.);
#502=VECTOR('',#919,1.);
#503=VECTOR('',#920,1.);
#504=VECTOR('',#923,1.);
#505=VECTOR('',#924,1.);
#506=VECTOR('',#927,1.);
#507=VECTOR('',#928,1.);
#508=VECTOR('',#931,1.);
#509=VECTOR('',#932,1.);
#510=VECTOR('',#935,1.);
#511=VECTOR('',#936,1.);
#512=VECTOR('',#939,1.);
#513=VECTOR('',#940,1.);
#514=VECTOR('',#943,1.);
#515=VECTOR('',#944,1.);
#516=VECTOR('',#947,1.);
#517=VECTOR('',#948,1.);
#518=VECTOR('',#951,1.);
#519=EDGE_LOOP('',(#55,#56,#57,#58,#59,#60,#61,#62));
#520=EDGE_LOOP('',(#63,#64,#65,#66,#67,#68,#69,#70));
#521=EDGE_LOOP('',(#71,#72,#73,#74));
#522=EDGE_LOOP('',(#75,#76,#77,#78));
#523=EDGE_LOOP('',(#79,#80,#81,#82));
#524=EDGE_LOOP('',(#83,#84,#85,#86));
#525=EDGE_LOOP('',(#87,#88,#89,#90));
#526=EDGE_LOOP('',(#91,#92,#93,#94));
#527=EDGE_LOOP('',(#95,#96,#97,#98));
#528=EDGE_LOOP('',(#99,#100,#101,#102));
#529=EDGE_LOOP('',(#103,#104,#105,#106));
#530=EDGE_LOOP('',(#107,#108,#109,#110));
#531=EDGE_LOOP('',(#111,#112,#113,#114));
#532=EDGE_LOOP('',(#115,#116,#117,#118));
#533=EDGE_LOOP('',(#119,#120,#121,#122));
#534=EDGE_LOOP('',(#123,#124,#125,#126));
#535=EDGE_LOOP('',(#127,#128,#129,#130));
#536=EDGE_LOOP('',(#131,#132,#133,#134));
#537=EDGE_LOOP('',(#135,#136,#137,#138));
#538=EDGE_LOOP('',(#139,#140,#141,#142));
#539=EDGE_LOOP('',(#143,#144,#145,#146));
#540=EDGE_LOOP('',(#147,#148,#149,#150));
#541=EDGE_LOOP('',(#151,#152,#153,#154));
#542=EDGE_LOOP('',(#155,#156,#157,#158));
#543=EDGE_LOOP('',(#159));
#544=EDGE_LOOP('',(#160,#161,#162,#163,#164,#165,#166,#167,#168,#169,#170,
#171));
#545=EDGE_LOOP('',(#172));
#546=EDGE_LOOP('',(#173));
#547=EDGE_LOOP('',(#174));
#548=EDGE_LOOP('',(#175,#176,#177,#178));
#549=EDGE_LOOP('',(#179,#180,#181,#182));
#550=EDGE_LOOP('',(#183,#184,#185,#186));
#551=EDGE_LOOP('',(#187,#188,#189,#190));
#552=EDGE_LOOP('',(#191,#192,#193,#194));
#553=EDGE_LOOP('',(#195,#196,#197,#198));
#554=EDGE_LOOP('',(#199,#200,#201,#202));
#555=EDGE_LOOP('',(#203,#204,#205,#206));
#556=EDGE_LOOP('',(#207,#208,#209,#210));
#557=EDGE_LOOP('',(#211,#212,#213,#214));
#558=EDGE_LOOP('',(#215,#216,#217,#218));
#559=EDGE_LOOP('',(#219,#220,#221,#222));
#560=EDGE_LOOP('',(#223,#224,#225,#226,#227,#228,#229,#230,#231,#232,#233,
#234));
#561=FACE_BOUND('',#519,.T.);
#562=FACE_BOUND('',#520,.T.);
#563=FACE_BOUND('',#521,.T.);
#564=FACE_BOUND('',#522,.T.);
#565=FACE_BOUND('',#523,.T.);
#566=FACE_BOUND('',#524,.T.);
#567=FACE_BOUND('',#525,.T.);
#568=FACE_BOUND('',#526,.T.);
#569=FACE_BOUND('',#527,.T.);
#570=FACE_BOUND('',#528,.T.);
#571=FACE_BOUND('',#529,.T.);
#572=FACE_BOUND('',#530,.T.);
#573=FACE_BOUND('',#531,.T.);
#574=FACE_BOUND('',#532,.T.);
#575=FACE_BOUND('',#533,.T.);
#576=FACE_BOUND('',#534,.T.);
#577=FACE_BOUND('',#535,.T.);
#578=FACE_BOUND('',#536,.T.);
#579=FACE_BOUND('',#537,.T.);
#580=FACE_BOUND('',#538,.T.);
#581=FACE_BOUND('',#539,.T.);
#582=FACE_BOUND('',#540,.T.);
#583=FACE_BOUND('',#541,.T.);
#584=FACE_BOUND('',#542,.T.);
#585=FACE_BOUND('',#543,.T.);
#586=FACE_BOUND('',#544,.T.);
#587=FACE_BOUND('',#545,.T.);
#588=FACE_BOUND('',#546,.T.);
#589=FACE_BOUND('',#547,.T.);
#590=FACE_BOUND('',#548,.T.);
#591=FACE_BOUND('',#549,.T.);
#592=FACE_BOUND('',#550,.T.);
#593=FACE_BOUND('',#551,.T.);
#594=FACE_BOUND('',#552,.T.);
#595=FACE_BOUND('',#553,.T.);
#596=FACE_BOUND('',#554,.T.);
#597=FACE_BOUND('',#555,.T.);
#598=FACE_BOUND('',#556,.T.);
#599=FACE_BOUND('',#557,.T.);
#600=FACE_BOUND('',#558,.T.);
#601=FACE_BOUND('',#559,.T.);
#602=FACE_BOUND('',#560,.T.);
#603=PLANE('',#697);
#604=PLANE('',#706);
#605=PLANE('',#709);
#606=PLANE('',#710);
#607=PLANE('',#712);
#608=PLANE('',#713);
#609=PLANE('',#715);
#610=PLANE('',#723);
#611=PLANE('',#726);
#612=PLANE('',#727);
#613=PLANE('',#729);
#614=PLANE('',#730);
#615=PLANE('',#732);
#616=PLANE('',#741);
#617=PLANE('',#745);
#618=PLANE('',#746);
#619=PLANE('',#747);
#620=PLANE('',#748);
#621=PLANE('',#749);
#622=PLANE('',#750);
#623=PLANE('',#751);
#624=PLANE('',#752);
#625=PLANE('',#753);
#626=PLANE('',#754);
#627=PLANE('',#755);
#628=PLANE('',#756);
#629=PLANE('',#757);
#630=PLANE('',#758);
#631=ADVANCED_FACE('',(#561,#562),#603,.F.);
#632=ADVANCED_FACE('',(#563),#604,.T.);
#633=ADVANCED_FACE('',(#564),#605,.T.);
#634=ADVANCED_FACE('',(#565),#606,.T.);
#635=ADVANCED_FACE('',(#566),#607,.T.);
#636=ADVANCED_FACE('',(#567),#608,.T.);
#637=ADVANCED_FACE('',(#568),#609,.T.);
#638=ADVANCED_FACE('',(#569),#24,.T.);
#639=ADVANCED_FACE('',(#570),#25,.T.);
#640=ADVANCED_FACE('',(#571),#26,.T.);
#641=ADVANCED_FACE('',(#572),#27,.T.);
#642=ADVANCED_FACE('',(#573),#28,.F.);
#643=ADVANCED_FACE('',(#574),#610,.F.);
#644=ADVANCED_FACE('',(#575),#611,.F.);
#645=ADVANCED_FACE('',(#576),#612,.F.);
#646=ADVANCED_FACE('',(#577),#613,.F.);
#647=ADVANCED_FACE('',(#578),#614,.F.);
#648=ADVANCED_FACE('',(#579),#615,.F.);
#649=ADVANCED_FACE('',(#580),#29,.F.);
#650=ADVANCED_FACE('',(#581),#30,.F.);
#651=ADVANCED_FACE('',(#582),#31,.F.);
#652=ADVANCED_FACE('',(#583),#32,.F.);
#653=ADVANCED_FACE('',(#584),#33,.T.);
#654=ADVANCED_FACE('',(#585,#586),#616,.F.);
#655=ADVANCED_FACE('',(#587,#588),#34,.T.);
#656=ADVANCED_FACE('',(#589),#617,.T.);
#657=ADVANCED_FACE('',(#590),#618,.T.);
#658=ADVANCED_FACE('',(#591),#619,.T.);
#659=ADVANCED_FACE('',(#592),#620,.T.);
#660=ADVANCED_FACE('',(#593),#621,.T.);
#661=ADVANCED_FACE('',(#594),#622,.T.);
#662=ADVANCED_FACE('',(#595),#623,.T.);
#663=ADVANCED_FACE('',(#596),#624,.F.);
#664=ADVANCED_FACE('',(#597),#625,.T.);
#665=ADVANCED_FACE('',(#598),#626,.F.);
#666=ADVANCED_FACE('',(#599),#627,.T.);
#667=ADVANCED_FACE('',(#600),#628,.T.);
#668=ADVANCED_FACE('',(#601),#629,.T.);
#669=ADVANCED_FACE('',(#602),#630,.F.);
#670=CLOSED_SHELL('',(#631,#632,#633,#634,#635,#636,#637,#638,#639,#640,
#641,#642,#643,#644,#645,#646,#647,#648,#649,#650,#651,#652,#653));
#671=CLOSED_SHELL('',(#654,#655,#656,#657,#658,#659,#660,#661,#662,#663,
#664,#665,#666,#667,#668,#669));
#672=STYLED_ITEM('',(#674),#688);
#673=STYLED_ITEM('',(#675),#689);
#674=PRESENTATION_STYLE_ASSIGNMENT((#676));
#675=PRESENTATION_STYLE_ASSIGNMENT((#677));
#676=SURFACE_STYLE_USAGE(.BOTH.,#678);
#677=SURFACE_STYLE_USAGE(.BOTH.,#679);
#678=SURFACE_SIDE_STYLE('',(#680));
#679=SURFACE_SIDE_STYLE('',(#681));
#680=SURFACE_STYLE_FILL_AREA(#682);
#681=SURFACE_STYLE_FILL_AREA(#683);
#682=FILL_AREA_STYLE('',(#684));
#683=FILL_AREA_STYLE('',(#685));
#684=FILL_AREA_STYLE_COLOUR('',#686);
#685=FILL_AREA_STYLE_COLOUR('',#687);
#686=COLOUR_RGB('',0.615686274509804,0.811764705882353,0.929411764705882);
#687=COLOUR_RGB('',0.647058823529412,0.647058823529412,0.647058823529412);
#688=MANIFOLD_SOLID_BREP('Part 1',#670);
#689=MANIFOLD_SOLID_BREP('Part 2',#671);
#690=SHAPE_DEFINITION_REPRESENTATION(#1156,#693);
#691=SHAPE_DEFINITION_REPRESENTATION(#1157,#694);
#692=SHAPE_DEFINITION_REPRESENTATION(#1159,#695);
#693=SHAPE_REPRESENTATION('1.75u Keycap',(#696,#740,#759),#1147);
#694=SHAPE_REPRESENTATION('Part 1',(#696),#1148);
#695=SHAPE_REPRESENTATION('Part 2',(#696),#1149);
#696=AXIS2_PLACEMENT_3D('',#956,#760,#761);
#697=AXIS2_PLACEMENT_3D('',#957,#762,#763);
#698=AXIS2_PLACEMENT_3D('',#961,#765,#766);
#699=AXIS2_PLACEMENT_3D('',#965,#768,#769);
#700=AXIS2_PLACEMENT_3D('',#969,#771,#772);
#701=AXIS2_PLACEMENT_3D('',#973,#774,#775);
#702=AXIS2_PLACEMENT_3D('',#974,#776,#777);
#703=AXIS2_PLACEMENT_3D('',#979,#779,#780);
#704=AXIS2_PLACEMENT_3D('',#983,#782,#783);
#705=AXIS2_PLACEMENT_3D('',#987,#785,#786);
#706=AXIS2_PLACEMENT_3D('',#990,#788,#789);
#707=AXIS2_PLACEMENT_3D('',#991,#790,#791);
#708=AXIS2_PLACEMENT_3D('',#996,#793,#794);
#709=AXIS2_PLACEMENT_3D('',#999,#796,#797);
#710=AXIS2_PLACEMENT_3D('',#1002,#800,#801);
#711=AXIS2_PLACEMENT_3D('',#1005,#803,#804);
#712=AXIS2_PLACEMENT_3D('',#1007,#806,#807);
#713=AXIS2_PLACEMENT_3D('',#1013,#811,#812);
#714=AXIS2_PLACEMENT_3D('',#1015,#814,#815);
#715=AXIS2_PLACEMENT_3D('',#1018,#817,#818);
#716=AXIS2_PLACEMENT_3D('',#1020,#820,#821);
#717=AXIS2_PLACEMENT_3D('',#1021,#822,#823);
#718=AXIS2_PLACEMENT_3D('',#1022,#824,#825);
#719=AXIS2_PLACEMENT_3D('',#1023,#826,#827);
#720=AXIS2_PLACEMENT_3D('',#1024,#828,#829);
#721=AXIS2_PLACEMENT_3D('',#1025,#830,#831);
#722=AXIS2_PLACEMENT_3D('',#1026,#832,#833);
#723=AXIS2_PLACEMENT_3D('',#1027,#834,#835);
#724=AXIS2_PLACEMENT_3D('',#1028,#836,#837);
#725=AXIS2_PLACEMENT_3D('',#1033,#839,#840);
#726=AXIS2_PLACEMENT_3D('',#1036,#842,#843);
#727=AXIS2_PLACEMENT_3D('',#1039,#846,#847);
#728=AXIS2_PLACEMENT_3D('',#1043,#850,#851);
#729=AXIS2_PLACEMENT_3D('',#1044,#852,#853);
#730=AXIS2_PLACEMENT_3D('',#1050,#857,#858);
#731=AXIS2_PLACEMENT_3D('',#1054,#861,#862);
#732=AXIS2_PLACEMENT_3D('',#1055,#863,#864);
#733=AXIS2_PLACEMENT_3D('',#1057,#866,#867);
#734=AXIS2_PLACEMENT_3D('',#1058,#868,#869);
#735=AXIS2_PLACEMENT_3D('',#1059,#870,#871);
#736=AXIS2_PLACEMENT_3D('',#1060,#872,#873);
#737=AXIS2_PLACEMENT_3D('',#1061,#874,#875);
#738=AXIS2_PLACEMENT_3D('',#1062,#876,#877);
#739=AXIS2_PLACEMENT_3D('',#1063,#878,#879);
#740=AXIS2_PLACEMENT_3D('',#1064,#880,#881);
#741=AXIS2_PLACEMENT_3D('',#1065,#882,#883);
#742=AXIS2_PLACEMENT_3D('',#1066,#884,#885);
#743=AXIS2_PLACEMENT_3D('',#1092,#898,#899);
#744=AXIS2_PLACEMENT_3D('',#1093,#900,#901);
#745=AXIS2_PLACEMENT_3D('',#1095,#902,#903);
#746=AXIS2_PLACEMENT_3D('',#1096,#904,#905);
#747=AXIS2_PLACEMENT_3D('',#1102,#909,#910);
#748=AXIS2_PLACEMENT_3D('',#1106,#913,#914);
#749=AXIS2_PLACEMENT_3D('',#1110,#917,#918);
#750=AXIS2_PLACEMENT_3D('',#1114,#921,#922);
#751=AXIS2_PLACEMENT_3D('',#1118,#925,#926);
#752=AXIS2_PLACEMENT_3D('',#1122,#929,#930);
#753=AXIS2_PLACEMENT_3D('',#1126,#933,#934);
#754=AXIS2_PLACEMENT_3D('',#1130,#937,#938);
#755=AXIS2_PLACEMENT_3D('',#1134,#941,#942);
#756=AXIS2_PLACEMENT_3D('',#1138,#945,#946);
#757=AXIS2_PLACEMENT_3D('',#1142,#949,#950);
#758=AXIS2_PLACEMENT_3D('',#1144,#952,#953);
#759=AXIS2_PLACEMENT_3D('',#1145,#954,#955);
#760=DIRECTION('',(0.,0.,1.));
#761=DIRECTION('',(1.,0.,0.));
#762=DIRECTION('',(0.,0.,1.));
#763=DIRECTION('',(1.,0.,0.));
#764=DIRECTION('',(0.,-1.,0.));
#765=DIRECTION('',(0.,0.,1.));
#766=DIRECTION('',(0.707106781186548,-0.707106781186548,0.));
#767=DIRECTION('',(-1.,0.,0.));
#768=DIRECTION('',(0.,0.,1.));
#769=DIRECTION('',(-0.707106781186548,-0.707106781186548,0.));
#770=DIRECTION('',(0.,1.,0.));
#771=DIRECTION('',(0.,0.,1.));
#772=DIRECTION('',(-0.707106781186548,0.707106781186548,0.));
#773=DIRECTION('',(1.,0.,0.));
#774=DIRECTION('',(0.,0.,1.));
#775=DIRECTION('',(0.707106781186548,0.707106781186548,0.));
#776=DIRECTION('',(0.,0.,1.));
#777=DIRECTION('',(0.707106781186548,-0.707106781186548,0.));
#778=DIRECTION('',(0.,-1.,0.));
#779=DIRECTION('',(0.,0.,1.));
#780=DIRECTION('',(0.707106781186548,0.707106781186548,0.));
#781=DIRECTION('',(1.,0.,0.));
#782=DIRECTION('',(0.,0.,1.));
#783=DIRECTION('',(-0.707106781186548,0.707106781186548,0.));
#784=DIRECTION('',(0.,1.,0.));
#785=DIRECTION('',(0.,0.,1.));
#786=DIRECTION('',(-0.707106781186548,-0.707106781186548,0.));
#787=DIRECTION('',(-1.,0.,0.));
#788=DIRECTION('',(0.,0.,1.));
#789=DIRECTION('',(1.,0.,0.));
#790=DIRECTION('',(0.,0.,1.));
#791=DIRECTION('',(0.707106781186548,0.707106781186548,0.));
#792=DIRECTION('',(0.,1.,0.));
#793=DIRECTION('',(0.,0.,1.));
#794=DIRECTION('',(0.707106781186548,-0.707106781186548,0.));
#795=DIRECTION('',(0.,-1.,0.));
#796=DIRECTION('',(-0.994521895368273,0.,0.104528463267653));
#797=DIRECTION('',(0.104528463267653,0.,0.994521895368273));
#798=DIRECTION('',(0.103962051184498,-0.103962051184498,0.989132844377854));
#799=DIRECTION('',(0.103962051184498,0.103962051184498,0.989132844377854));
#800=DIRECTION('',(0.,-0.994521895368273,0.104528463267653));
#801=DIRECTION('',(0.,0.104528463267653,0.994521895368273));
#802=DIRECTION('',(-0.103962051184498,0.103962051184498,0.989132844377854));
#803=DIRECTION('',(0.,-0.994521895368273,0.104528463267653));
#804=DIRECTION('',(0.,0.104528463267653,0.994521895368273));
#805=DIRECTION('',(0.103962051184498,0.103962051184498,0.989132844377854));
#806=DIRECTION('',(0.994521895368273,0.,0.104528463267653));
#807=DIRECTION('',(-0.104528463267653,0.,0.994521895368273));
#808=DIRECTION('',(-0.103962051184498,-0.103962051184498,0.989132844377854));
#809=DIRECTION('',(0.,1.,0.));
#810=DIRECTION('',(-0.103962051184498,0.103962051184498,0.989132844377854));
#811=DIRECTION('',(0.,0.994521895368273,0.104528463267653));
#812=DIRECTION('',(0.,-0.104528463267653,0.994521895368273));
#813=DIRECTION('',(0.103962051184498,-0.103962051184498,0.989132844377854));
#814=DIRECTION('',(0.,0.994521895368273,0.104528463267653));
#815=DIRECTION('',(0.,0.104528463267653,-0.994521895368273));
#816=DIRECTION('',(-0.103962051184498,-0.103962051184498,0.989132844377854));
#817=DIRECTION('',(0.,0.,1.));
#818=DIRECTION('',(1.,0.,0.));
#819=DIRECTION('',(0.,1.,0.));
#820=DIRECTION('',(0.,0.,1.));
#821=DIRECTION('',(-0.707106781186548,0.707106781186548,0.));
#822=DIRECTION('',(0.,0.,1.));
#823=DIRECTION('',(-0.707106781186548,-0.707106781186548,0.));
#824=DIRECTION('',(0.103962051184498,-0.103962051184498,0.989132844377854));
#825=DIRECTION('',(0.994521895368273,0.,-0.104528463267653));
#826=DIRECTION('',(-0.103962051184498,-0.103962051184498,0.989132844377854));
#827=DIRECTION('',(0.994521895368273,0.,0.104528463267653));
#828=DIRECTION('',(0.103962051184498,0.103962051184498,0.989132844377854));
#829=DIRECTION('',(0.994521895368273,0.,-0.104528463267653));
#830=DIRECTION('',(-0.103962051184498,0.103962051184498,0.989132844377854));
#831=DIRECTION('',(0.994521895368273,0.,0.104528463267653));
#832=DIRECTION('',(0.,1.,0.));
#833=DIRECTION('',(0.,0.,1.));
#834=DIRECTION('',(0.,0.,1.));
#835=DIRECTION('',(1.,0.,0.));
#836=DIRECTION('',(0.,0.,1.));
#837=DIRECTION('',(0.707106781186548,0.707106781186548,0.));
#838=DIRECTION('',(0.,-1.,0.));
#839=DIRECTION('',(0.,0.,1.));
#840=DIRECTION('',(0.707106781186548,-0.707106781186548,0.));
#841=DIRECTION('',(0.,1.,0.));
#842=DIRECTION('',(-0.994521895368273,0.,0.104528463267653));
#843=DIRECTION('',(0.104528463267653,0.,0.994521895368273));
#844=DIRECTION('',(0.103962051184498,0.103962051184498,0.989132844377854));
#845=DIRECTION('',(0.103962051184498,-0.103962051184498,0.989132844377854));
#846=DIRECTION('',(0.,-0.994521895368273,0.104528463267653));
#847=DIRECTION('',(0.,0.104528463267653,0.994521895368273));
#848=DIRECTION('',(-0.103962051184498,0.103962051184498,0.989132844377854));
#849=DIRECTION('',(0.103962051184498,0.103962051184498,0.989132844377854));
#850=DIRECTION('',(0.,-0.994521895368273,0.104528463267653));
#851=DIRECTION('',(0.,0.104528463267653,0.994521895368273));
#852=DIRECTION('',(0.994521895368273,0.,0.104528463267653));
#853=DIRECTION('',(-0.104528463267653,0.,0.994521895368273));
#854=DIRECTION('',(-0.103962051184498,0.103962051184498,0.989132844377854));
#855=DIRECTION('',(0.,1.,0.));
#856=DIRECTION('',(-0.103962051184498,-0.103962051184498,0.989132844377854));
#857=DIRECTION('',(0.,0.994521895368273,0.104528463267653));
#858=DIRECTION('',(0.,-0.104528463267653,0.994521895368273));
#859=DIRECTION('',(0.103962051184498,-0.103962051184498,0.989132844377854));
#860=DIRECTION('',(-0.103962051184498,-0.103962051184498,0.989132844377854));
#861=DIRECTION('',(0.,0.994521895368273,0.104528463267653));
#862=DIRECTION('',(0.,0.104528463267653,-0.994521895368273));
#863=DIRECTION('',(0.,0.,1.));
#864=DIRECTION('',(1.,0.,0.));
#865=DIRECTION('',(0.,1.,0.));
#866=DIRECTION('',(0.,0.,1.));
#867=DIRECTION('',(-0.707106781186548,-0.707106781186548,0.));
#868=DIRECTION('',(0.,0.,1.));
#869=DIRECTION('',(-0.707106781186548,0.707106781186548,0.));
#870=DIRECTION('',(0.103962051184498,-0.103962051184498,0.989132844377854));
#871=DIRECTION('',(0.994521895368273,0.,-0.104528463267653));
#872=DIRECTION('',(-0.103962051184498,-0.103962051184498,0.989132844377854));
#873=DIRECTION('',(0.994521895368273,0.,0.104528463267653));
#874=DIRECTION('',(0.103962051184498,0.103962051184498,0.989132844377854));
#875=DIRECTION('',(0.994521895368273,0.,-0.104528463267653));
#876=DIRECTION('',(-0.103962051184498,0.103962051184498,0.989132844377854));
#877=DIRECTION('',(0.994521895368273,0.,0.104528463267653));
#878=DIRECTION('',(0.,1.,0.));
#879=DIRECTION('',(0.,0.,1.));
#880=DIRECTION('',(0.,0.,1.));
#881=DIRECTION('',(1.,0.,0.));
#882=DIRECTION('',(0.,0.,1.));
#883=DIRECTION('',(1.,0.,0.));
#884=DIRECTION('',(0.,0.,1.));
#885=DIRECTION('',(1.,0.,0.));
#886=DIRECTION('',(1.,0.,0.));
#887=DIRECTION('',(0.,-1.,0.));
#888=DIRECTION('',(1.,0.,0.));
#889=DIRECTION('',(-8.03112720359633E-17,1.,0.));
#890=DIRECTION('',(1.,0.,0.));
#891=DIRECTION('',(0.,1.,0.));
#892=DIRECTION('',(1.,0.,0.));
#893=DIRECTION('',(-8.03112720359633E-17,1.,0.));
#894=DIRECTION('',(1.,0.,0.));
#895=DIRECTION('',(0.,-1.,0.));
#896=DIRECTION('',(-1.,0.,0.));
#897=DIRECTION('',(0.,-1.,0.));
#898=DIRECTION('',(0.,0.,-1.));
#899=DIRECTION('',(-1.,0.,0.));
#900=DIRECTION('',(0.,0.,1.));
#901=DIRECTION('',(1.,0.,0.));
#902=DIRECTION('',(0.,0.,1.));
#903=DIRECTION('',(1.,0.,0.));
#904=DIRECTION('',(0.,1.,0.));
#905=DIRECTION('',(0.,0.,1.));
#906=DIRECTION('',(0.,0.,-1.));
#907=DIRECTION('',(1.,0.,0.));
#908=DIRECTION('',(0.,0.,-1.));
#909=DIRECTION('',(1.,0.,0.));
#910=DIRECTION('',(0.,0.,-1.));
#911=DIRECTION('',(0.,-1.,0.));
#912=DIRECTION('',(0.,0.,-1.));
#913=DIRECTION('',(0.,1.,0.));
#914=DIRECTION('',(0.,0.,1.));
#915=DIRECTION('',(1.,0.,0.));
#916=DIRECTION('',(0.,0.,-1.));
#917=DIRECTION('',(-1.,-8.03112720359633E-17,0.));
#918=DIRECTION('',(8.03112720359633E-17,-1.,0.));
#919=DIRECTION('',(-8.03112720359633E-17,1.,0.));
#920=DIRECTION('',(0.,0.,-1.));
#921=DIRECTION('',(0.,1.,0.));
#922=DIRECTION('',(0.,0.,1.));
#923=DIRECTION('',(1.,0.,0.));
#924=DIRECTION('',(0.,0.,-1.));
#925=DIRECTION('',(-1.,0.,0.));
#926=DIRECTION('',(0.,0.,1.));
#927=DIRECTION('',(0.,1.,0.));
#928=DIRECTION('',(0.,0.,-1.));
#929=DIRECTION('',(0.,1.,0.));
#930=DIRECTION('',(0.,0.,1.));
#931=DIRECTION('',(1.,0.,0.));
#932=DIRECTION('',(0.,0.,-1.));
#933=DIRECTION('',(-1.,-8.03112720359633E-17,0.));
#934=DIRECTION('',(8.03112720359633E-17,-1.,0.));
#935=DIRECTION('',(-8.03112720359633E-17,1.,0.));
#936=DIRECTION('',(0.,0.,-1.));
#937=DIRECTION('',(0.,1.,0.));
#938=DIRECTION('',(0.,0.,1.));
#939=DIRECTION('',(1.,0.,0.));
#940=DIRECTION('',(0.,0.,-1.));
#941=DIRECTION('',(1.,0.,0.));
#942=DIRECTION('',(0.,0.,-1.));
#943=DIRECTION('',(0.,-1.,0.));
#944=DIRECTION('',(0.,0.,-1.));
#945=DIRECTION('',(0.,-1.,0.));
#946=DIRECTION('',(0.,0.,-1.));
#947=DIRECTION('',(-1.,0.,0.));
#948=DIRECTION('',(0.,0.,-1.));
#949=DIRECTION('',(1.,0.,0.));
#950=DIRECTION('',(0.,0.,-1.));
#951=DIRECTION('',(0.,-1.,0.));
#952=DIRECTION('',(0.,0.,1.));
#953=DIRECTION('',(1.,0.,0.));
#954=DIRECTION('',(0.,0.,1.));
#955=DIRECTION('',(1.,0.,0.));
#956=CARTESIAN_POINT('',(0.,0.,0.));
#957=CARTESIAN_POINT('',(-3.46944695195361E-18,0.,0.));
#958=CARTESIAN_POINT('',(-0.0144984902350239,0.,0.));
#959=CARTESIAN_POINT('',(-0.0144984902350239,0.00800944644428738,0.));
#960=CARTESIAN_POINT('',(-0.0144984902350239,-0.00800944644428738,0.));
#961=CARTESIAN_POINT('',(-0.0124874736758969,0.0079874736758969,0.));
#962=CARTESIAN_POINT('',(-0.0125094464442874,0.00999849023502393,0.));
#963=CARTESIAN_POINT('',(-3.46944695195361E-18,0.00999849023502393,0.));
#964=CARTESIAN_POINT('',(0.0125094464442874,0.00999849023502393,0.));
#965=CARTESIAN_POINT('',(0.0124874736758969,0.00798747367589689,0.));
#966=CARTESIAN_POINT('',(0.0144984902350239,0.00800944644428738,0.));
#967=CARTESIAN_POINT('',(0.0144984902350239,0.,0.));
#968=CARTESIAN_POINT('',(0.0144984902350239,-0.00800944644428738,0.));
#969=CARTESIAN_POINT('',(0.0124874736758969,-0.00798747367589689,0.));
#970=CARTESIAN_POINT('',(0.0125094464442874,-0.00999849023502393,0.));
#971=CARTESIAN_POINT('',(-3.46944695195361E-18,-0.00999849023502393,0.));
#972=CARTESIAN_POINT('',(-0.0125094464442874,-0.00999849023502393,0.));
#973=CARTESIAN_POINT('',(-0.0124874736758969,-0.00798747367589689,0.));
#974=CARTESIAN_POINT('',(-0.0124874736758969,0.0079874736758969,0.));
#975=CARTESIAN_POINT('',(-0.0126885753318096,0.00798967095273595,0.));
#976=CARTESIAN_POINT('',(-0.0124896709527359,0.0081885753318096,0.));
#977=CARTESIAN_POINT('',(-0.0126885753318096,0.,0.));
#978=CARTESIAN_POINT('',(-0.0126885753318096,-0.00798967095273594,0.));
#979=CARTESIAN_POINT('',(-0.0124874736758969,-0.00798747367589689,0.));
#980=CARTESIAN_POINT('',(-0.0124896709527359,-0.0081885753318096,0.));
#981=CARTESIAN_POINT('',(-3.46944695195361E-18,-0.0081885753318096,0.));
#982=CARTESIAN_POINT('',(0.0124896709527359,-0.0081885753318096,0.));
#983=CARTESIAN_POINT('',(0.0124874736758969,-0.00798747367589689,0.));
#984=CARTESIAN_POINT('',(0.0126885753318096,-0.00798967095273594,0.));
#985=CARTESIAN_POINT('',(0.0126885753318096,0.,0.));
#986=CARTESIAN_POINT('',(0.0126885753318096,0.00798967095273594,0.));
#987=CARTESIAN_POINT('',(0.0124874736758969,0.00798747367589689,0.));
#988=CARTESIAN_POINT('',(0.0124896709527359,0.0081885753318096,0.));
#989=CARTESIAN_POINT('',(-3.46944695195361E-18,0.0081885753318096,0.));
#990=CARTESIAN_POINT('',(-3.46944695195361E-18,0.,0.0095));
#991=CARTESIAN_POINT('',(-0.011488983440873,-0.00698898344087297,0.0095));
#992=CARTESIAN_POINT('',(-0.0135,-0.00701095620926345,0.0095));
#993=CARTESIAN_POINT('',(-0.0115109562092634,-0.009,0.0095));
#994=CARTESIAN_POINT('',(-0.0115109562092634,-0.0125,0.0095));
#995=CARTESIAN_POINT('',(-0.0115109562092634,0.009,0.0095));
#996=CARTESIAN_POINT('',(-0.011488983440873,0.00698898344087297,0.0095));
#997=CARTESIAN_POINT('',(-0.0135,0.00701095620926346,0.0095));
#998=CARTESIAN_POINT('',(-0.0135,0.,0.0095));
#999=CARTESIAN_POINT('',(-0.0135,-0.0045,0.0095));
#1000=CARTESIAN_POINT('',(-0.0133755883411114,0.00688654455037491,0.0106836978650201));
#1001=CARTESIAN_POINT('',(-0.0134728613138898,-0.0069838175231533,0.00975820735046079));
#1002=CARTESIAN_POINT('',(-0.0135,-0.009,0.0095));
#1003=CARTESIAN_POINT('',(0.0112406350912073,-0.00872967888194386,0.012071933636859));
#1004=CARTESIAN_POINT('',(0.0115109562092634,-0.009,0.0095));
#1005=CARTESIAN_POINT('',(-8.67361737988404E-19,-0.00281088832315346,0.0683854641414027));
#1006=CARTESIAN_POINT('',(-0.0115324540095425,-0.00902149780027904,0.00929546209318114));
#1007=CARTESIAN_POINT('',(0.0135,-0.0045,0.0095));
#1008=CARTESIAN_POINT('',(0.0133755883411114,0.00688654455037491,0.0106836978650201));
#1009=CARTESIAN_POINT('',(0.0135,0.00701095620926345,0.0095));
#1010=CARTESIAN_POINT('',(0.0135,0.,0.0095));
#1011=CARTESIAN_POINT('',(0.0135,-0.00701095620926345,0.0095));
#1012=CARTESIAN_POINT('',(0.0134728613138898,-0.0069838175231533,0.00975820735046079));
#1013=CARTESIAN_POINT('',(-0.0135,0.009,0.0095));
#1014=CARTESIAN_POINT('',(-0.0115324540095425,0.00902149780027904,0.00929546209318114));
#1015=CARTESIAN_POINT('',(-8.67361737988404E-19,0.00281088832315347,0.0683854641414027));
#1016=CARTESIAN_POINT('',(0.0115109562092634,0.009,0.0095));
#1017=CARTESIAN_POINT('',(0.0112406350912073,0.00872967888194386,0.012071933636859));
#1018=CARTESIAN_POINT('',(-3.46944695195361E-18,0.,0.0095));
#1019=CARTESIAN_POINT('',(0.0115109562092634,-0.0125,0.0095));
#1020=CARTESIAN_POINT('',(0.011488983440873,-0.00698898344087297,0.0095));
#1021=CARTESIAN_POINT('',(0.011488983440873,0.00698898344087297,0.0095));
#1022=CARTESIAN_POINT('',(-0.0115324540095425,0.0070324540095425,0.00908640516664583));
#1023=CARTESIAN_POINT('',(0.0113865445503749,0.0068865445503749,0.0104746409384848));
#1024=CARTESIAN_POINT('',(-0.0114838175231533,-0.0069838175231533,0.00954915042392548));
#1025=CARTESIAN_POINT('',(0.0112406350912073,-0.00674063509120731,0.0118628767103237));
#1026=CARTESIAN_POINT('',(-8.67361737988404E-19,-0.0125,0.0683854641414027));
#1027=CARTESIAN_POINT('',(-3.46944695195361E-18,0.,0.0077));
#1028=CARTESIAN_POINT('',(-0.0116781710643512,-0.00717817106435118,0.0077));
#1029=CARTESIAN_POINT('',(-0.0118792727202639,-0.00718036834119023,0.0077));
#1030=CARTESIAN_POINT('',(-0.0116821893250327,-0.00737929227081046,0.00769966308878811));
#1031=CARTESIAN_POINT('',(-0.0118792727202639,0.,0.0077));
#1032=CARTESIAN_POINT('',(-0.0118792727202639,0.00718036834119024,0.0077));
#1033=CARTESIAN_POINT('',(-0.0116781710643512,0.00717817106435119,0.0077));
#1034=CARTESIAN_POINT('',(-0.0116821893250327,0.00737929227081046,0.00769966308878811));
#1035=CARTESIAN_POINT('',(-0.0116839394872847,-0.0125,0.0077));
#1036=CARTESIAN_POINT('',(-0.0117098605883371,-0.0045,0.00931184876611822));
#1037=CARTESIAN_POINT('',(-0.0116827219022269,-0.0069838175231533,0.00957005611657901));
#1038=CARTESIAN_POINT('',(-0.0117313583886161,0.0070324540095425,0.00910731085929936));
#1039=CARTESIAN_POINT('',(-0.0135,-0.00720986058833711,0.00931184876611822));
#1040=CARTESIAN_POINT('',(0.0112406350912073,-0.00693953947028097,0.0118837824029773));
#1041=CARTESIAN_POINT('',(0.0116821893250327,-0.00737929227081046,0.00769966308878811));
#1042=CARTESIAN_POINT('',(-0.0114838175231533,-0.00718272190222695,0.00957005611657901));
#1043=CARTESIAN_POINT('',(-8.67361737988404E-19,-0.00100097341993913,0.0683854641414027));
#1044=CARTESIAN_POINT('',(0.0117098605883371,-0.0045,0.00931184876611822));
#1045=CARTESIAN_POINT('',(0.011439539470281,-0.00674063509120731,0.0118837824029773));
#1046=CARTESIAN_POINT('',(0.0118792727202639,-0.00718036834119023,0.0077));
#1047=CARTESIAN_POINT('',(0.0118792727202639,0.,0.0077));
#1048=CARTESIAN_POINT('',(0.0118792727202639,0.00718036834119023,0.0077));
#1049=CARTESIAN_POINT('',(0.0115854489294485,0.0068865445503749,0.0104955466311383));
#1050=CARTESIAN_POINT('',(-0.0135,0.00720986058833711,0.00931184876611822));
#1051=CARTESIAN_POINT('',(-0.0115324540095425,0.00723135838861615,0.00910731085929936));
#1052=CARTESIAN_POINT('',(0.0113865445503749,0.00708544892944856,0.0104955466311383));
#1053=CARTESIAN_POINT('',(0.0116821893250327,0.00737929227081046,0.00769966308878811));
#1054=CARTESIAN_POINT('',(-8.67361737988404E-19,0.00100097341993913,0.0683854641414027));
#1055=CARTESIAN_POINT('',(-3.46944695195361E-18,0.,0.0077));
#1056=CARTESIAN_POINT('',(0.0116839394872847,-0.0125,0.0077));
#1057=CARTESIAN_POINT('',(0.0116781710643512,0.00717817106435119,0.0077));
#1058=CARTESIAN_POINT('',(0.0116781710643512,-0.00717817106435118,0.0077));
#1059=CARTESIAN_POINT('',(-0.0115324540095425,0.0070324540095425,0.00908640516664583));
#1060=CARTESIAN_POINT('',(0.0113865445503749,0.0068865445503749,0.0104746409384848));
#1061=CARTESIAN_POINT('',(-0.0114838175231533,-0.0069838175231533,0.00954915042392548));
#1062=CARTESIAN_POINT('',(0.0112406350912073,-0.00674063509120731,0.0118628767103237));
#1063=CARTESIAN_POINT('',(-8.67361737988404E-19,-0.0125,0.0683854641414027));
#1064=CARTESIAN_POINT('',(0.,0.,0.));
#1065=CARTESIAN_POINT('',(0.,0.,0.));
#1066=CARTESIAN_POINT('',(0.,1.53080849893419E-19,0.));
#1067=CARTESIAN_POINT('',(0.0025,1.53080849893419E-19,0.));
#1068=CARTESIAN_POINT('',(-0.001325,-0.00065,0.));
#1069=CARTESIAN_POINT('',(-0.002,-0.00065,0.));
#1070=CARTESIAN_POINT('',(-0.00065,-0.00065,0.));
#1071=CARTESIAN_POINT('',(-0.00065,-0.001325,0.));
#1072=CARTESIAN_POINT('',(-0.00065,-0.002,0.));
#1073=CARTESIAN_POINT('',(2.16840434497101E-19,-0.002,0.));
#1074=CARTESIAN_POINT('',(0.00065,-0.002,0.));
#1075=CARTESIAN_POINT('',(0.00065,-0.001325,0.));
#1076=CARTESIAN_POINT('',(0.00065,-0.00065,0.));
#1077=CARTESIAN_POINT('',(0.001325,-0.00065,0.));
#1078=CARTESIAN_POINT('',(0.002,-0.00065,0.));
#1079=CARTESIAN_POINT('',(0.002,-2.16840434497101E-19,0.));
#1080=CARTESIAN_POINT('',(0.002,0.00065,0.));
#1081=CARTESIAN_POINT('',(0.001325,0.00065,0.));
#1082=CARTESIAN_POINT('',(0.00065,0.00065,0.));
#1083=CARTESIAN_POINT('',(0.00065,0.001325,0.));
#1084=CARTESIAN_POINT('',(0.00065,0.002,0.));
#1085=CARTESIAN_POINT('',(0.000325,0.002,0.));
#1086=CARTESIAN_POINT('',(-0.00065,0.002,0.));
#1087=CARTESIAN_POINT('',(-0.00065,0.001325,0.));
#1088=CARTESIAN_POINT('',(-0.00065,0.00065,0.));
#1089=CARTESIAN_POINT('',(-0.001325,0.00065,0.));
#1090=CARTESIAN_POINT('',(-0.002,0.00065,0.));
#1091=CARTESIAN_POINT('',(-0.002,-2.71050543121376E-19,0.));
#1092=CARTESIAN_POINT('',(0.,1.53080849893419E-19,0.0085));
#1093=CARTESIAN_POINT('',(0.,1.53080849893419E-19,0.0085));
#1094=CARTESIAN_POINT('',(0.0025,1.53080849893419E-19,0.0085));
#1095=CARTESIAN_POINT('',(0.,0.,0.0085));
#1096=CARTESIAN_POINT('',(-0.001325,-0.00065,0.004));
#1097=CARTESIAN_POINT('',(-0.002,-0.00065,0.004));
#1098=CARTESIAN_POINT('',(-0.002,-0.00065,0.004));
#1099=CARTESIAN_POINT('',(-0.001325,-0.00065,0.004));
#1100=CARTESIAN_POINT('',(-0.00065,-0.00065,0.004));
#1101=CARTESIAN_POINT('',(-0.00065,-0.00065,0.004));
#1102=CARTESIAN_POINT('',(-0.00065,-0.001325,0.004));
#1103=CARTESIAN_POINT('',(-0.00065,-0.001325,0.004));
#1104=CARTESIAN_POINT('',(-0.00065,-0.002,0.004));
#1105=CARTESIAN_POINT('',(-0.00065,-0.002,0.004));
#1106=CARTESIAN_POINT('',(2.16840434497101E-19,-0.002,0.004));
#1107=CARTESIAN_POINT('',(2.16840434497101E-19,-0.002,0.004));
#1108=CARTESIAN_POINT('',(0.00065,-0.002,0.004));
#1109=CARTESIAN_POINT('',(0.00065,-0.002,0.004));
#1110=CARTESIAN_POINT('',(0.00065,-0.001325,0.004));
#1111=CARTESIAN_POINT('',(0.00065,-0.001325,0.004));
#1112=CARTESIAN_POINT('',(0.00065,-0.00065,0.004));
#1113=CARTESIAN_POINT('',(0.00065,-0.00065,0.004));
#1114=CARTESIAN_POINT('',(0.001325,-0.00065,0.004));
#1115=CARTESIAN_POINT('',(0.001325,-0.00065,0.004));
#1116=CARTESIAN_POINT('',(0.002,-0.00065,0.004));
#1117=CARTESIAN_POINT('',(0.002,-0.00065,0.004));
#1118=CARTESIAN_POINT('',(0.002,-2.16840434497101E-19,0.004));
#1119=CARTESIAN_POINT('',(0.002,-2.16840434497101E-19,0.004));
#1120=CARTESIAN_POINT('',(0.002,0.00065,0.004));
#1121=CARTESIAN_POINT('',(0.002,0.00065,0.004));
#1122=CARTESIAN_POINT('',(0.001325,0.00065,0.004));
#1123=CARTESIAN_POINT('',(0.001325,0.00065,0.004));
#1124=CARTESIAN_POINT('',(0.00065,0.00065,0.004));
#1125=CARTESIAN_POINT('',(0.00065,0.00065,0.004));
#1126=CARTESIAN_POINT('',(0.00065,0.001325,0.004));
#1127=CARTESIAN_POINT('',(0.00065,0.001325,0.004));
#1128=CARTESIAN_POINT('',(0.00065,0.002,0.004));
#1129=CARTESIAN_POINT('',(0.00065,0.002,0.004));
#1130=CARTESIAN_POINT('',(0.000325,0.002,0.004));
#1131=CARTESIAN_POINT('',(0.000325,0.002,0.004));
#1132=CARTESIAN_POINT('',(-0.00065,0.002,0.004));
#1133=CARTESIAN_POINT('',(-0.00065,0.002,0.004));
#1134=CARTESIAN_POINT('',(-0.00065,0.001325,0.004));
#1135=CARTESIAN_POINT('',(-0.00065,0.001325,0.004));
#1136=CARTESIAN_POINT('',(-0.00065,0.00065,0.004));
#1137=CARTESIAN_POINT('',(-0.00065,0.00065,0.004));
#1138=CARTESIAN_POINT('',(-0.001325,0.00065,0.004));
#1139=CARTESIAN_POINT('',(-0.001325,0.00065,0.004));
#1140=CARTESIAN_POINT('',(-0.002,0.00065,0.004));
#1141=CARTESIAN_POINT('',(-0.002,0.00065,0.004));
#1142=CARTESIAN_POINT('',(-0.002,-2.71050543121376E-19,0.004));
#1143=CARTESIAN_POINT('',(-0.002,-2.71050543121376E-19,0.004));
#1144=CARTESIAN_POINT('',(0.,0.,0.004));
#1145=CARTESIAN_POINT('',(0.,0.,0.));
#1146=MECHANICAL_DESIGN_GEOMETRIC_PRESENTATION_REPRESENTATION('',(#672,
#673),#1147);
#1147=(
GEOMETRIC_REPRESENTATION_CONTEXT(3)
GLOBAL_UNCERTAINTY_ASSIGNED_CONTEXT((#1150))
GLOBAL_UNIT_ASSIGNED_CONTEXT((#1155,#1154,#1153))
REPRESENTATION_CONTEXT('1.75u Keycap','TOP_LEVEL_ASSEMBLY_PART')
);
#1148=(
GEOMETRIC_REPRESENTATION_CONTEXT(3)
GLOBAL_UNCERTAINTY_ASSIGNED_CONTEXT((#1151))
GLOBAL_UNIT_ASSIGNED_CONTEXT((#1155,#1154,#1153))
REPRESENTATION_CONTEXT('Part 1','COMPONENT_PART')
);
#1149=(
GEOMETRIC_REPRESENTATION_CONTEXT(3)
GLOBAL_UNCERTAINTY_ASSIGNED_CONTEXT((#1152))
GLOBAL_UNIT_ASSIGNED_CONTEXT((#1155,#1154,#1153))
REPRESENTATION_CONTEXT('Part 2','COMPONENT_PART')
);
#1150=UNCERTAINTY_MEASURE_WITH_UNIT(LENGTH_MEASURE(1.E-8),#1155,
'DISTANCE_ACCURACY_VALUE','Maximum Tolerance applied to model');
#1151=UNCERTAINTY_MEASURE_WITH_UNIT(LENGTH_MEASURE(3.92267205322084E-6),
#1155,'DISTANCE_ACCURACY_VALUE','Maximum Tolerance applied to model');
#1152=UNCERTAINTY_MEASURE_WITH_UNIT(LENGTH_MEASURE(1.E-8),#1155,
'DISTANCE_ACCURACY_VALUE','Maximum Tolerance applied to model');
#1153=(
NAMED_UNIT(*)
SI_UNIT($,.STERADIAN.)
SOLID_ANGLE_UNIT()
);
#1154=(
NAMED_UNIT(*)
PLANE_ANGLE_UNIT()
SI_UNIT($,.RADIAN.)
);
#1155=(
LENGTH_UNIT()
NAMED_UNIT(*)
SI_UNIT($,.METRE.)
);
#1156=PRODUCT_DEFINITION_SHAPE('','',#1161);
#1157=PRODUCT_DEFINITION_SHAPE('','',#1162);
#1158=PRODUCT_DEFINITION_SHAPE(' ','NAUO PRDDFN',#14);
#1159=PRODUCT_DEFINITION_SHAPE('','',#1163);
#1160=PRODUCT_DEFINITION_SHAPE(' ','NAUO PRDDFN',#15);
#1161=PRODUCT_DEFINITION('','',#1167,#1164);
#1162=PRODUCT_DEFINITION('','',#1168,#1165);
#1163=PRODUCT_DEFINITION('','',#1169,#1166);
#1164=PRODUCT_DEFINITION_CONTEXT('',#1183,'design');
#1165=PRODUCT_DEFINITION_CONTEXT('',#1183,'design');
#1166=PRODUCT_DEFINITION_CONTEXT('',#1183,'design');
#1167=PRODUCT_DEFINITION_FORMATION_WITH_SPECIFIED_SOURCE('','',#1173,
 .NOT_KNOWN.);
#1168=PRODUCT_DEFINITION_FORMATION_WITH_SPECIFIED_SOURCE('','',#1174,
 .NOT_KNOWN.);
#1169=PRODUCT_DEFINITION_FORMATION_WITH_SPECIFIED_SOURCE('','',#1175,
 .NOT_KNOWN.);
#1170=PRODUCT_RELATED_PRODUCT_CATEGORY('','',(#1173));
#1171=PRODUCT_RELATED_PRODUCT_CATEGORY('','',(#1174));
#1172=PRODUCT_RELATED_PRODUCT_CATEGORY('','',(#1175));
#1173=PRODUCT('1.75u Keycap','1.75u Keycap','1.75u Keycap',(#1179));
#1174=PRODUCT('Part 1','Part 1','Part 1',(#1180));
#1175=PRODUCT('Part 2','Part 2','Part 2',(#1181));
#1176=PRODUCT_CATEGORY('','');
#1177=PRODUCT_CATEGORY('','');
#1178=PRODUCT_CATEGORY('','');
#1179=PRODUCT_CONTEXT('',#1183,'mechanical');
#1180=PRODUCT_CONTEXT('',#1183,'mechanical');
#1181=PRODUCT_CONTEXT('',#1183,'mechanical');
#1182=APPLICATION_PROTOCOL_DEFINITION('international standard',
'ap242_managed_model_based_3d_engineering',2020,#1183);
#1183=APPLICATION_CONTEXT('managed model based 3d engineering');
ENDSEC;
END-ISO-10303-21;
