ISO-10303-21;
HEADER;
FILE_DESCRIPTION( ( 'Unknown' ), '1' );
FILE_NAME( 'I:/User_Groups_Only/17_EMC_Product_&_Development/Article_Master/eiCan/Assembly/As_SSTIE/Master_Data/01_CAD_drawing/1_Drawing/971060151/971050321.stp', 'Unknown', ( 'Unknown' ), ( 'Unknown' ), 'PSStep 18.0.17', 'Unknown', '  ' );
FILE_SCHEMA( ( 'AUTOMOTIVE_DESIGN { 1 0 10303 214 1 1 1 1 }' ) );
ENDSEC;
DATA;
#1 = MECHANICAL_DESIGN_GEOMETRIC_PRESENTATION_REPRESENTATION( ' ', ( #10, #11, #12, #13, #14, #15, #16, #17, #18, #19, #20, #21, #22, #23, #24, #25, #26, #27, #28, #29, #30, #31, #32, #33, #34 ), #6 );
#2 = PRODUCT_DEFINITION_CONTEXT( '', #35, 'design' );
#3 = APPLICATION_PROTOCOL_DEFINITION( 'international standard', 'automotive_design', 2001, #35 );
#4 = PRODUCT_CATEGORY_RELATIONSHIP( 'NONE', 'NONE', #36, #37 );
#5 = SHAPE_DEFINITION_REPRESENTATION( #38, #39 );
#6 =  ( GEOMETRIC_REPRESENTATION_CONTEXT( 3 )GLOBAL_UNCERTAINTY_ASSIGNED_CONTEXT( ( #42 ) )GLOBAL_UNIT_ASSIGNED_CONTEXT( ( #44, #45, #46 ) )REPRESENTATION_CONTEXT( 'NONE', 'WORKSPACE' ) );
#10 = STYLED_ITEM( '', ( #48 ), #49 );
#11 = STYLED_ITEM( '', ( #50 ), #51 );
#12 = STYLED_ITEM( '', ( #52 ), #53 );
#13 = STYLED_ITEM( '', ( #54 ), #55 );
#14 = STYLED_ITEM( '', ( #56 ), #57 );
#15 = STYLED_ITEM( '', ( #58 ), #59 );
#16 = STYLED_ITEM( '', ( #60 ), #61 );
#17 = STYLED_ITEM( '', ( #62 ), #63 );
#18 = STYLED_ITEM( '', ( #64 ), #65 );
#19 = STYLED_ITEM( '', ( #66 ), #67 );
#20 = STYLED_ITEM( '', ( #68 ), #69 );
#21 = STYLED_ITEM( '', ( #70 ), #71 );
#22 = STYLED_ITEM( '', ( #72 ), #73 );
#23 = STYLED_ITEM( '', ( #74 ), #75 );
#24 = STYLED_ITEM( '', ( #76 ), #77 );
#25 = STYLED_ITEM( '', ( #78 ), #79 );
#26 = STYLED_ITEM( '', ( #80 ), #81 );
#27 = STYLED_ITEM( '', ( #82 ), #83 );
#28 = STYLED_ITEM( '', ( #84 ), #85 );
#29 = STYLED_ITEM( '', ( #86 ), #87 );
#30 = STYLED_ITEM( '', ( #88 ), #89 );
#31 = STYLED_ITEM( '', ( #90 ), #91 );
#32 = STYLED_ITEM( '', ( #92 ), #93 );
#33 = STYLED_ITEM( '', ( #94 ), #95 );
#34 = STYLED_ITEM( '', ( #96 ), #97 );
#35 = APPLICATION_CONTEXT( 'core data for automotive mechanical design processes' );
#36 = PRODUCT_CATEGORY( 'part', 'NONE' );
#37 = PRODUCT_RELATED_PRODUCT_CATEGORY( 'detail', ' ', ( #98 ) );
#38 = PRODUCT_DEFINITION_SHAPE( 'NONE', 'NONE', #99 );
#39 = ADVANCED_BREP_SHAPE_REPRESENTATION( '1', ( #100, #101 ), #6 );
#42 = UNCERTAINTY_MEASURE_WITH_UNIT( LENGTH_MEASURE( 0.00100000000000000 ), #44, '', '' );
#44 =  ( CONVERSION_BASED_UNIT( 'MILLIMETRE', #104 )LENGTH_UNIT(  )NAMED_UNIT( #107 ) );
#45 =  ( NAMED_UNIT( #109 )PLANE_ANGLE_UNIT(  )SI_UNIT( $, .RADIAN. ) );
#46 =  ( NAMED_UNIT( #109 )SI_UNIT( $, .STERADIAN. )SOLID_ANGLE_UNIT(  ) );
#48 = PRESENTATION_STYLE_ASSIGNMENT( ( #115 ) );
#49 = ADVANCED_FACE( '', ( #116, #117 ), #118, .T. );
#50 = PRESENTATION_STYLE_ASSIGNMENT( ( #119 ) );
#51 = ADVANCED_FACE( '', ( #120 ), #121, .F. );
#52 = PRESENTATION_STYLE_ASSIGNMENT( ( #122 ) );
#53 = ADVANCED_FACE( '', ( #123 ), #124, .T. );
#54 = PRESENTATION_STYLE_ASSIGNMENT( ( #125 ) );
#55 = ADVANCED_FACE( '', ( #126, #127 ), #128, .F. );
#56 = PRESENTATION_STYLE_ASSIGNMENT( ( #129 ) );
#57 = ADVANCED_FACE( '', ( #130, #131 ), #132, .T. );
#58 = PRESENTATION_STYLE_ASSIGNMENT( ( #133 ) );
#59 = ADVANCED_FACE( '', ( #134, #135 ), #136, .T. );
#60 = PRESENTATION_STYLE_ASSIGNMENT( ( #137 ) );
#61 = ADVANCED_FACE( '', ( #138 ), #139, .T. );
#62 = PRESENTATION_STYLE_ASSIGNMENT( ( #140 ) );
#63 = ADVANCED_FACE( '', ( #141 ), #142, .F. );
#64 = PRESENTATION_STYLE_ASSIGNMENT( ( #143 ) );
#65 = ADVANCED_FACE( '', ( #144, #145 ), #146, .F. );
#66 = PRESENTATION_STYLE_ASSIGNMENT( ( #147 ) );
#67 = ADVANCED_FACE( '', ( #148 ), #149, .F. );
#68 = PRESENTATION_STYLE_ASSIGNMENT( ( #150 ) );
#69 = ADVANCED_FACE( '', ( #151, #152 ), #153, .F. );
#70 = PRESENTATION_STYLE_ASSIGNMENT( ( #154 ) );
#71 = ADVANCED_FACE( '', ( #155, #156 ), #157, .F. );
#72 = PRESENTATION_STYLE_ASSIGNMENT( ( #158 ) );
#73 = ADVANCED_FACE( '', ( #159 ), #160, .T. );
#74 = PRESENTATION_STYLE_ASSIGNMENT( ( #161 ) );
#75 = ADVANCED_FACE( '', ( #162 ), #163, .F. );
#76 = PRESENTATION_STYLE_ASSIGNMENT( ( #164 ) );
#77 = ADVANCED_FACE( '', ( #165, #166 ), #167, .T. );
#78 = PRESENTATION_STYLE_ASSIGNMENT( ( #168 ) );
#79 = ADVANCED_FACE( '', ( #169 ), #170, .F. );
#80 = PRESENTATION_STYLE_ASSIGNMENT( ( #171 ) );
#81 = ADVANCED_FACE( '', ( #172, #173 ), #174, .F. );
#82 = PRESENTATION_STYLE_ASSIGNMENT( ( #175 ) );
#83 = ADVANCED_FACE( '', ( #176, #177 ), #178, .F. );
#84 = PRESENTATION_STYLE_ASSIGNMENT( ( #179 ) );
#85 = ADVANCED_FACE( '', ( #180 ), #181, .T. );
#86 = PRESENTATION_STYLE_ASSIGNMENT( ( #182 ) );
#87 = ADVANCED_FACE( '', ( #183 ), #184, .F. );
#88 = PRESENTATION_STYLE_ASSIGNMENT( ( #185 ) );
#89 = ADVANCED_FACE( '', ( #186, #187 ), #188, .F. );
#90 = PRESENTATION_STYLE_ASSIGNMENT( ( #189 ) );
#91 = ADVANCED_FACE( '', ( #190 ), #191, .T. );
#92 = PRESENTATION_STYLE_ASSIGNMENT( ( #192 ) );
#93 = ADVANCED_FACE( '', ( #193 ), #194, .T. );
#94 = PRESENTATION_STYLE_ASSIGNMENT( ( #195 ) );
#95 = ADVANCED_FACE( '', ( #196 ), #197, .T. );
#96 = PRESENTATION_STYLE_ASSIGNMENT( ( #198 ) );
#97 = ADVANCED_FACE( '', ( #199, #200 ), #201, .T. );
#98 = PRODUCT( '1', '1', 'PART-1-DESC', ( #202 ) );
#99 = PRODUCT_DEFINITION( 'NONE', 'NONE', #203, #2 );
#100 = MANIFOLD_SOLID_BREP( '1', #204 );
#101 = AXIS2_PLACEMENT_3D( '', #205, #206, #207 );
#104 = LENGTH_MEASURE_WITH_UNIT( LENGTH_MEASURE( 1.00000000000000 ), #208 );
#107 = DIMENSIONAL_EXPONENTS( 1.00000000000000, 0.000000000000000, 0.000000000000000, 0.000000000000000, 0.000000000000000, 0.000000000000000, 0.000000000000000 );
#109 = DIMENSIONAL_EXPONENTS( 0.000000000000000, 0.000000000000000, 0.000000000000000, 0.000000000000000, 0.000000000000000, 0.000000000000000, 0.000000000000000 );
#115 = SURFACE_STYLE_USAGE( .BOTH., #209 );
#116 = FACE_OUTER_BOUND( '', #210, .T. );
#117 = FACE_OUTER_BOUND( '', #211, .T. );
#118 = CYLINDRICAL_SURFACE( '', #212, 1.06698729810000 );
#119 = SURFACE_STYLE_USAGE( .BOTH., #213 );
#120 = FACE_OUTER_BOUND( '', #214, .T. );
#121 = PLANE( '', #215 );
#122 = SURFACE_STYLE_USAGE( .BOTH., #216 );
#123 = FACE_OUTER_BOUND( '', #217, .T. );
#124 = CONICAL_SURFACE( '', #218, 2.75000000000000, 0.785398163400000 );
#125 = SURFACE_STYLE_USAGE( .BOTH., #219 );
#126 = FACE_BOUND( '', #220, .T. );
#127 = FACE_OUTER_BOUND( '', #221, .T. );
#128 = CONICAL_SURFACE( '', #222, 1.42950000000000, 0.785398163400000 );
#129 = SURFACE_STYLE_USAGE( .BOTH., #223 );
#130 = FACE_BOUND( '', #224, .T. );
#131 = FACE_OUTER_BOUND( '', #225, .T. );
#132 = CONICAL_SURFACE( '', #226, 1.50000000000000, 0.785398163400000 );
#133 = SURFACE_STYLE_USAGE( .BOTH., #227 );
#134 = FACE_BOUND( '', #228, .T. );
#135 = FACE_OUTER_BOUND( '', #229, .T. );
#136 = PLANE( '', #230 );
#137 = SURFACE_STYLE_USAGE( .BOTH., #231 );
#138 = FACE_OUTER_BOUND( '', #232, .T. );
#139 = CONICAL_SURFACE( '', #233, 2.75000000000000, 0.785398163400000 );
#140 = SURFACE_STYLE_USAGE( .BOTH., #234 );
#141 = FACE_OUTER_BOUND( '', #235, .T. );
#142 = PLANE( '', #236 );
#143 = SURFACE_STYLE_USAGE( .BOTH., #237 );
#144 = FACE_OUTER_BOUND( '', #238, .T. );
#145 = FACE_OUTER_BOUND( '', #239, .T. );
#146 = TOROIDAL_SURFACE( '', #240, 1.26698729810000, 0.200000000000000 );
#147 = SURFACE_STYLE_USAGE( .BOTH., #241 );
#148 = FACE_OUTER_BOUND( '', #242, .T. );
#149 = PLANE( '', #243 );
#150 = SURFACE_STYLE_USAGE( .BOTH., #244 );
#151 = FACE_OUTER_BOUND( '', #245, .T. );
#152 = FACE_OUTER_BOUND( '', #246, .T. );
#153 = CYLINDRICAL_SURFACE( '', #247, 1.22950000000000 );
#154 = SURFACE_STYLE_USAGE( .BOTH., #248 );
#155 = FACE_OUTER_BOUND( '', #249, .T. );
#156 = FACE_BOUND( '', #250, .T. );
#157 = CONICAL_SURFACE( '', #251, 1.22950000000000, 1.02974425870000 );
#158 = SURFACE_STYLE_USAGE( .BOTH., #252 );
#159 = FACE_OUTER_BOUND( '', #253, .T. );
#160 = CONICAL_SURFACE( '', #254, 2.75000000000000, 0.785398163400000 );
#161 = SURFACE_STYLE_USAGE( .BOTH., #255 );
#162 = FACE_OUTER_BOUND( '', #256, .T. );
#163 = PLANE( '', #257 );
#164 = SURFACE_STYLE_USAGE( .BOTH., #258 );
#165 = FACE_OUTER_BOUND( '', #259, .T. );
#166 = FACE_OUTER_BOUND( '', #260, .T. );
#167 = CYLINDRICAL_SURFACE( '', #261, 1.50000000000000 );
#168 = SURFACE_STYLE_USAGE( .BOTH., #262 );
#169 = FACE_OUTER_BOUND( '', #263, .T. );
#170 = PLANE( '', #264 );
#171 = SURFACE_STYLE_USAGE( .BOTH., #265 );
#172 = FACE_OUTER_BOUND( '', #266, .T. );
#173 = FACE_OUTER_BOUND( '', #267, .T. );
#174 = CYLINDRICAL_SURFACE( '', #268, 1.22950000000000 );
#175 = SURFACE_STYLE_USAGE( .BOTH., #269 );
#176 = FACE_OUTER_BOUND( '', #270, .T. );
#177 = FACE_OUTER_BOUND( '', #271, .T. );
#178 = TOROIDAL_SURFACE( '', #272, 1.26698729810000, 0.200000000000000 );
#179 = SURFACE_STYLE_USAGE( .BOTH., #273 );
#180 = FACE_OUTER_BOUND( '', #274, .T. );
#181 = CONICAL_SURFACE( '', #275, 2.75000000000000, 0.785398163400000 );
#182 = SURFACE_STYLE_USAGE( .BOTH., #276 );
#183 = FACE_OUTER_BOUND( '', #277, .T. );
#184 = PLANE( '', #278 );
#185 = SURFACE_STYLE_USAGE( .BOTH., #279 );
#186 = FACE_BOUND( '', #280, .T. );
#187 = FACE_OUTER_BOUND( '', #281, .T. );
#188 = PLANE( '', #282 );
#189 = SURFACE_STYLE_USAGE( .BOTH., #283 );
#190 = FACE_OUTER_BOUND( '', #284, .T. );
#191 = PLANE( '', #285 );
#192 = SURFACE_STYLE_USAGE( .BOTH., #286 );
#193 = FACE_OUTER_BOUND( '', #287, .T. );
#194 = CONICAL_SURFACE( '', #288, 2.75000000000000, 0.785398163400000 );
#195 = SURFACE_STYLE_USAGE( .BOTH., #289 );
#196 = FACE_OUTER_BOUND( '', #290, .T. );
#197 = CONICAL_SURFACE( '', #291, 2.75000000000000, 0.785398163400000 );
#198 = SURFACE_STYLE_USAGE( .BOTH., #292 );
#199 = FACE_BOUND( '', #293, .T. );
#200 = FACE_OUTER_BOUND( '', #294, .T. );
#201 = CONICAL_SURFACE( '', #295, 1.06698729810000, 0.523598775600000 );
#202 = PRODUCT_CONTEXT( '', #35, 'mechanical' );
#203 = PRODUCT_DEFINITION_FORMATION_WITH_SPECIFIED_SOURCE( ' ', 'NONE', #98, .NOT_KNOWN. );
#204 = CLOSED_SHELL( '', ( #73, #79, #63, #87, #67, #75, #89, #59, #49, #97, #77, #91, #81, #55, #51, #65, #83, #57, #61, #93, #85, #95, #53, #71, #69 ) );
#205 = CARTESIAN_POINT( '', ( 0.000000000000000, 0.000000000000000, 0.000000000000000 ) );
#206 = DIRECTION( '', ( 0.000000000000000, 0.000000000000000, 1.00000000000000 ) );
#207 = DIRECTION( '', ( 1.00000000000000, 0.000000000000000, 0.000000000000000 ) );
#208 =  ( LENGTH_UNIT(  )NAMED_UNIT( #107 )SI_UNIT( .MILLI., .METRE. ) );
#209 = SURFACE_SIDE_STYLE( '', ( #297 ) );
#210 = EDGE_LOOP( '', ( #298 ) );
#211 = EDGE_LOOP( '', ( #299 ) );
#212 = AXIS2_PLACEMENT_3D( '', #300, #301, #302 );
#213 = SURFACE_SIDE_STYLE( '', ( #303 ) );
#214 = EDGE_LOOP( '', ( #304, #305, #306, #307, #308 ) );
#215 = AXIS2_PLACEMENT_3D( '', #309, #310, #311 );
#216 = SURFACE_SIDE_STYLE( '', ( #312 ) );
#217 = EDGE_LOOP( '', ( #313, #314, #315 ) );
#218 = AXIS2_PLACEMENT_3D( '', #316, #317, #318 );
#219 = SURFACE_SIDE_STYLE( '', ( #319 ) );
#220 = EDGE_LOOP( '', ( #320 ) );
#221 = EDGE_LOOP( '', ( #321 ) );
#222 = AXIS2_PLACEMENT_3D( '', #322, #323, #324 );
#223 = SURFACE_SIDE_STYLE( '', ( #325 ) );
#224 = EDGE_LOOP( '', ( #326 ) );
#225 = EDGE_LOOP( '', ( #327 ) );
#226 = AXIS2_PLACEMENT_3D( '', #328, #329, #330 );
#227 = SURFACE_SIDE_STYLE( '', ( #331 ) );
#228 = EDGE_LOOP( '', ( #332 ) );
#229 = EDGE_LOOP( '', ( #333, #334, #335, #336, #337, #338 ) );
#230 = AXIS2_PLACEMENT_3D( '', #339, #340, #341 );
#231 = SURFACE_SIDE_STYLE( '', ( #342 ) );
#232 = EDGE_LOOP( '', ( #343, #344, #345 ) );
#233 = AXIS2_PLACEMENT_3D( '', #346, #347, #348 );
#234 = SURFACE_SIDE_STYLE( '', ( #349 ) );
#235 = EDGE_LOOP( '', ( #350, #351, #352, #353, #354 ) );
#236 = AXIS2_PLACEMENT_3D( '', #355, #356, #357 );
#237 = SURFACE_SIDE_STYLE( '', ( #358 ) );
#238 = EDGE_LOOP( '', ( #359 ) );
#239 = EDGE_LOOP( '', ( #360 ) );
#240 = AXIS2_PLACEMENT_3D( '', #361, #362, #363 );
#241 = SURFACE_SIDE_STYLE( '', ( #364 ) );
#242 = EDGE_LOOP( '', ( #365, #366, #367, #368, #369 ) );
#243 = AXIS2_PLACEMENT_3D( '', #370, #371, #372 );
#244 = SURFACE_SIDE_STYLE( '', ( #373 ) );
#245 = EDGE_LOOP( '', ( #374 ) );
#246 = EDGE_LOOP( '', ( #375 ) );
#247 = AXIS2_PLACEMENT_3D( '', #376, #377, #378 );
#248 = SURFACE_SIDE_STYLE( '', ( #379 ) );
#249 = EDGE_LOOP( '', ( #380 ) );
#250 = VERTEX_LOOP( '', #381 );
#251 = AXIS2_PLACEMENT_3D( '', #382, #383, #384 );
#252 = SURFACE_SIDE_STYLE( '', ( #385 ) );
#253 = EDGE_LOOP( '', ( #386, #387, #388 ) );
#254 = AXIS2_PLACEMENT_3D( '', #389, #390, #391 );
#255 = SURFACE_SIDE_STYLE( '', ( #392 ) );
#256 = EDGE_LOOP( '', ( #393, #394, #395, #396, #397 ) );
#257 = AXIS2_PLACEMENT_3D( '', #398, #399, #400 );
#258 = SURFACE_SIDE_STYLE( '', ( #401 ) );
#259 = EDGE_LOOP( '', ( #402 ) );
#260 = EDGE_LOOP( '', ( #403 ) );
#261 = AXIS2_PLACEMENT_3D( '', #404, #405, #406 );
#262 = SURFACE_SIDE_STYLE( '', ( #407 ) );
#263 = EDGE_LOOP( '', ( #408, #409, #410, #411, #412 ) );
#264 = AXIS2_PLACEMENT_3D( '', #413, #414, #415 );
#265 = SURFACE_SIDE_STYLE( '', ( #416 ) );
#266 = EDGE_LOOP( '', ( #417 ) );
#267 = EDGE_LOOP( '', ( #418 ) );
#268 = AXIS2_PLACEMENT_3D( '', #419, #420, #421 );
#269 = SURFACE_SIDE_STYLE( '', ( #422 ) );
#270 = EDGE_LOOP( '', ( #423 ) );
#271 = EDGE_LOOP( '', ( #424 ) );
#272 = AXIS2_PLACEMENT_3D( '', #425, #426, #427 );
#273 = SURFACE_SIDE_STYLE( '', ( #428 ) );
#274 = EDGE_LOOP( '', ( #429, #430, #431 ) );
#275 = AXIS2_PLACEMENT_3D( '', #432, #433, #434 );
#276 = SURFACE_SIDE_STYLE( '', ( #435 ) );
#277 = EDGE_LOOP( '', ( #436, #437, #438, #439, #440 ) );
#278 = AXIS2_PLACEMENT_3D( '', #441, #442, #443 );
#279 = SURFACE_SIDE_STYLE( '', ( #444 ) );
#280 = EDGE_LOOP( '', ( #445 ) );
#281 = EDGE_LOOP( '', ( #446, #447, #448, #449, #450, #451 ) );
#282 = AXIS2_PLACEMENT_3D( '', #452, #453, #454 );
#283 = SURFACE_SIDE_STYLE( '', ( #455 ) );
#284 = EDGE_LOOP( '', ( #456 ) );
#285 = AXIS2_PLACEMENT_3D( '', #457, #458, #459 );
#286 = SURFACE_SIDE_STYLE( '', ( #460 ) );
#287 = EDGE_LOOP( '', ( #461, #462, #463 ) );
#288 = AXIS2_PLACEMENT_3D( '', #464, #465, #466 );
#289 = SURFACE_SIDE_STYLE( '', ( #467 ) );
#290 = EDGE_LOOP( '', ( #468, #469, #470 ) );
#291 = AXIS2_PLACEMENT_3D( '', #471, #472, #473 );
#292 = SURFACE_SIDE_STYLE( '', ( #474 ) );
#293 = EDGE_LOOP( '', ( #475 ) );
#294 = EDGE_LOOP( '', ( #476 ) );
#295 = AXIS2_PLACEMENT_3D( '', #477, #478, #479 );
#297 = SURFACE_STYLE_FILL_AREA( #480 );
#298 = ORIENTED_EDGE( '', *, *, #481, .T. );
#299 = ORIENTED_EDGE( '', *, *, #482, .T. );
#300 = CARTESIAN_POINT( '', ( 1.45244597725756E-016, 0.000000000000000, 11.0000000000000 ) );
#301 = DIRECTION( '', ( 1.68665076409874E-015, -0.000000000000000, 1.00000000000000 ) );
#302 = DIRECTION( '', ( -1.00000000000000, 0.000000000000000, 1.68665076409874E-015 ) );
#303 = SURFACE_STYLE_FILL_AREA( #483 );
#304 = ORIENTED_EDGE( '', *, *, #484, .F. );
#305 = ORIENTED_EDGE( '', *, *, #485, .F. );
#306 = ORIENTED_EDGE( '', *, *, #486, .F. );
#307 = ORIENTED_EDGE( '', *, *, #487, .T. );
#308 = ORIENTED_EDGE( '', *, *, #488, .F. );
#309 = CARTESIAN_POINT( '', ( 1.58771324027147, 2.75000000000000, 5.00000000000000 ) );
#310 = DIRECTION( '', ( -2.45833297975171E-015, -1.00000000000000, 0.000000000000000 ) );
#311 = DIRECTION( '', ( 1.00000000000000, -2.45833297975171E-015, 0.000000000000000 ) );
#312 = SURFACE_STYLE_FILL_AREA( #489 );
#313 = ORIENTED_EDGE( '', *, *, #488, .T. );
#314 = ORIENTED_EDGE( '', *, *, #490, .T. );
#315 = ORIENTED_EDGE( '', *, *, #491, .T. );
#316 = CARTESIAN_POINT( '', ( 0.000000000000000, 0.000000000000000, 0.000000000000000 ) );
#317 = DIRECTION( '', ( -0.000000000000000, -0.000000000000000, 1.00000000000000 ) );
#318 = DIRECTION( '', ( 1.00000000000000, 0.000000000000000, 0.000000000000000 ) );
#319 = SURFACE_STYLE_FILL_AREA( #492 );
#320 = ORIENTED_EDGE( '', *, *, #493, .F. );
#321 = ORIENTED_EDGE( '', *, *, #494, .F. );
#322 = CARTESIAN_POINT( '', ( 0.000000000000000, 0.000000000000000, 0.000000000000000 ) );
#323 = DIRECTION( '', ( 0.000000000000000, -0.000000000000000, -1.00000000000000 ) );
#324 = DIRECTION( '', ( 1.00000000000000, 0.000000000000000, 0.000000000000000 ) );
#325 = SURFACE_STYLE_FILL_AREA( #495 );
#326 = ORIENTED_EDGE( '', *, *, #496, .F. );
#327 = ORIENTED_EDGE( '', *, *, #497, .F. );
#328 = CARTESIAN_POINT( '', ( -1.92085555093990E-016, 0.000000000000000, 10.8000000000000 ) );
#329 = DIRECTION( '', ( -1.68665076409874E-015, 0.000000000000000, -1.00000000000000 ) );
#330 = DIRECTION( '', ( -1.00000000000000, 0.000000000000000, 1.68665076409874E-015 ) );
#331 = SURFACE_STYLE_FILL_AREA( #498 );
#332 = ORIENTED_EDGE( '', *, *, #499, .T. );
#333 = ORIENTED_EDGE( '', *, *, #486, .T. );
#334 = ORIENTED_EDGE( '', *, *, #500, .T. );
#335 = ORIENTED_EDGE( '', *, *, #501, .T. );
#336 = ORIENTED_EDGE( '', *, *, #502, .T. );
#337 = ORIENTED_EDGE( '', *, *, #503, .T. );
#338 = ORIENTED_EDGE( '', *, *, #504, .T. );
#339 = CARTESIAN_POINT( '', ( 0.000000000000000, 0.000000000000000, 5.00000000000000 ) );
#340 = DIRECTION( '', ( 0.000000000000000, 0.000000000000000, 1.00000000000000 ) );
#341 = DIRECTION( '', ( 1.00000000000000, 0.000000000000000, 0.000000000000000 ) );
#342 = SURFACE_STYLE_FILL_AREA( #505 );
#343 = ORIENTED_EDGE( '', *, *, #506, .T. );
#344 = ORIENTED_EDGE( '', *, *, #507, .T. );
#345 = ORIENTED_EDGE( '', *, *, #508, .T. );
#346 = CARTESIAN_POINT( '', ( 0.000000000000000, 0.000000000000000, 0.000000000000000 ) );
#347 = DIRECTION( '', ( -0.000000000000000, -0.000000000000000, 1.00000000000000 ) );
#348 = DIRECTION( '', ( 1.00000000000000, 0.000000000000000, 0.000000000000000 ) );
#349 = SURFACE_STYLE_FILL_AREA( #509 );
#350 = ORIENTED_EDGE( '', *, *, #510, .F. );
#351 = ORIENTED_EDGE( '', *, *, #511, .F. );
#352 = ORIENTED_EDGE( '', *, *, #501, .F. );
#353 = ORIENTED_EDGE( '', *, *, #512, .T. );
#354 = ORIENTED_EDGE( '', *, *, #513, .F. );
#355 = CARTESIAN_POINT( '', ( -3.17542648054295, -2.16840434497101E-016, 5.00000000000000 ) );
#356 = DIRECTION( '', ( 0.866025403784439, 0.500000000000000, 0.000000000000000 ) );
#357 = DIRECTION( '', ( -0.500000000000000, 0.866025403784439, 0.000000000000000 ) );
#358 = SURFACE_STYLE_FILL_AREA( #514 );
#359 = ORIENTED_EDGE( '', *, *, #499, .F. );
#360 = ORIENTED_EDGE( '', *, *, #482, .F. );
#361 = CARTESIAN_POINT( '', ( -9.63732983404689E-015, 0.000000000000000, 5.20000000000000 ) );
#362 = DIRECTION( '', ( 0.000000000000000, 0.000000000000000, 1.00000000000000 ) );
#363 = DIRECTION( '', ( 1.00000000000000, 0.000000000000000, 0.000000000000000 ) );
#364 = SURFACE_STYLE_FILL_AREA( #515 );
#365 = ORIENTED_EDGE( '', *, *, #506, .F. );
#366 = ORIENTED_EDGE( '', *, *, #516, .F. );
#367 = ORIENTED_EDGE( '', *, *, #503, .F. );
#368 = ORIENTED_EDGE( '', *, *, #517, .T. );
#369 = ORIENTED_EDGE( '', *, *, #518, .F. );
#370 = CARTESIAN_POINT( '', ( 1.58771324027147, -2.75000000000000, 5.00000000000000 ) );
#371 = DIRECTION( '', ( -0.866025403784439, 0.500000000000000, 0.000000000000000 ) );
#372 = DIRECTION( '', ( -0.500000000000000, -0.866025403784439, 0.000000000000000 ) );
#373 = SURFACE_STYLE_FILL_AREA( #519 );
#374 = ORIENTED_EDGE( '', *, *, #520, .T. );
#375 = ORIENTED_EDGE( '', *, *, #521, .T. );
#376 = CARTESIAN_POINT( '', ( 0.000000000000000, 0.000000000000000, 0.000000000000000 ) );
#377 = DIRECTION( '', ( -0.000000000000000, 0.000000000000000, -1.00000000000000 ) );
#378 = DIRECTION( '', ( 0.000000000000000, 1.00000000000000, 0.000000000000000 ) );
#379 = SURFACE_STYLE_FILL_AREA( #522 );
#380 = ORIENTED_EDGE( '', *, *, #520, .F. );
#381 = VERTEX_POINT( '', #523 );
#382 = CARTESIAN_POINT( '', ( 0.000000000000000, 0.000000000000000, 4.25000000000000 ) );
#383 = DIRECTION( '', ( 0.000000000000000, -0.000000000000000, -1.00000000000000 ) );
#384 = DIRECTION( '', ( 0.000000000000000, -1.00000000000000, 0.000000000000000 ) );
#385 = SURFACE_STYLE_FILL_AREA( #524 );
#386 = ORIENTED_EDGE( '', *, *, #510, .T. );
#387 = ORIENTED_EDGE( '', *, *, #525, .T. );
#388 = ORIENTED_EDGE( '', *, *, #526, .T. );
#389 = CARTESIAN_POINT( '', ( 0.000000000000000, 0.000000000000000, 0.000000000000000 ) );
#390 = DIRECTION( '', ( -0.000000000000000, -0.000000000000000, 1.00000000000000 ) );
#391 = DIRECTION( '', ( 1.00000000000000, 0.000000000000000, 0.000000000000000 ) );
#392 = SURFACE_STYLE_FILL_AREA( #527 );
#393 = ORIENTED_EDGE( '', *, *, #490, .F. );
#394 = ORIENTED_EDGE( '', *, *, #487, .F. );
#395 = ORIENTED_EDGE( '', *, *, #504, .F. );
#396 = ORIENTED_EDGE( '', *, *, #516, .T. );
#397 = ORIENTED_EDGE( '', *, *, #508, .F. );
#398 = CARTESIAN_POINT( '', ( 3.17542648054294, -2.16840434497101E-016, 5.00000000000000 ) );
#399 = DIRECTION( '', ( -0.866025403784439, -0.500000000000000, 0.000000000000000 ) );
#400 = DIRECTION( '', ( 0.500000000000000, -0.866025403784439, 0.000000000000000 ) );
#401 = SURFACE_STYLE_FILL_AREA( #528 );
#402 = ORIENTED_EDGE( '', *, *, #497, .T. );
#403 = ORIENTED_EDGE( '', *, *, #529, .F. );
#404 = CARTESIAN_POINT( '', ( 1.45244597725756E-016, 0.000000000000000, 11.0000000000000 ) );
#405 = DIRECTION( '', ( 1.68665076409874E-015, -0.000000000000000, 1.00000000000000 ) );
#406 = DIRECTION( '', ( -1.00000000000000, 0.000000000000000, 1.68665076409874E-015 ) );
#407 = SURFACE_STYLE_FILL_AREA( #530 );
#408 = ORIENTED_EDGE( '', *, *, #531, .F. );
#409 = ORIENTED_EDGE( '', *, *, #512, .F. );
#410 = ORIENTED_EDGE( '', *, *, #500, .F. );
#411 = ORIENTED_EDGE( '', *, *, #485, .T. );
#412 = ORIENTED_EDGE( '', *, *, #532, .F. );
#413 = CARTESIAN_POINT( '', ( -1.58771324027147, 2.75000000000000, 5.00000000000000 ) );
#414 = DIRECTION( '', ( 0.866025403784439, -0.500000000000000, 0.000000000000000 ) );
#415 = DIRECTION( '', ( 0.500000000000000, 0.866025403784439, 0.000000000000000 ) );
#416 = SURFACE_STYLE_FILL_AREA( #533 );
#417 = ORIENTED_EDGE( '', *, *, #521, .F. );
#418 = ORIENTED_EDGE( '', *, *, #493, .T. );
#419 = CARTESIAN_POINT( '', ( 0.000000000000000, 0.000000000000000, 0.000000000000000 ) );
#420 = DIRECTION( '', ( -0.000000000000000, 0.000000000000000, -1.00000000000000 ) );
#421 = DIRECTION( '', ( 0.000000000000000, 1.00000000000000, 0.000000000000000 ) );
#422 = SURFACE_STYLE_FILL_AREA( #534 );
#423 = ORIENTED_EDGE( '', *, *, #535, .F. );
#424 = ORIENTED_EDGE( '', *, *, #481, .F. );
#425 = CARTESIAN_POINT( '', ( -9.22172194684800E-015, 0.000000000000000, 5.44641016151377 ) );
#426 = DIRECTION( '', ( -1.68665076409873E-015, 0.000000000000000, -1.00000000000000 ) );
#427 = DIRECTION( '', ( -1.00000000000000, 0.000000000000000, 1.68665076409873E-015 ) );
#428 = SURFACE_STYLE_FILL_AREA( #536 );
#429 = ORIENTED_EDGE( '', *, *, #513, .T. );
#430 = ORIENTED_EDGE( '', *, *, #531, .T. );
#431 = ORIENTED_EDGE( '', *, *, #537, .T. );
#432 = CARTESIAN_POINT( '', ( 0.000000000000000, 0.000000000000000, 0.000000000000000 ) );
#433 = DIRECTION( '', ( -0.000000000000000, -0.000000000000000, 1.00000000000000 ) );
#434 = DIRECTION( '', ( 1.00000000000000, 0.000000000000000, 0.000000000000000 ) );
#435 = SURFACE_STYLE_FILL_AREA( #538 );
#436 = ORIENTED_EDGE( '', *, *, #539, .F. );
#437 = ORIENTED_EDGE( '', *, *, #517, .F. );
#438 = ORIENTED_EDGE( '', *, *, #502, .F. );
#439 = ORIENTED_EDGE( '', *, *, #511, .T. );
#440 = ORIENTED_EDGE( '', *, *, #526, .F. );
#441 = CARTESIAN_POINT( '', ( -1.58771324027147, -2.75000000000000, 5.00000000000000 ) );
#442 = DIRECTION( '', ( 0.000000000000000, 1.00000000000000, 0.000000000000000 ) );
#443 = DIRECTION( '', ( 0.000000000000000, 0.000000000000000, 1.00000000000000 ) );
#444 = SURFACE_STYLE_FILL_AREA( #540 );
#445 = ORIENTED_EDGE( '', *, *, #494, .T. );
#446 = ORIENTED_EDGE( '', *, *, #541, .F. );
#447 = ORIENTED_EDGE( '', *, *, #491, .F. );
#448 = ORIENTED_EDGE( '', *, *, #507, .F. );
#449 = ORIENTED_EDGE( '', *, *, #542, .F. );
#450 = ORIENTED_EDGE( '', *, *, #525, .F. );
#451 = ORIENTED_EDGE( '', *, *, #537, .F. );
#452 = CARTESIAN_POINT( '', ( 0.000000000000000, 0.000000000000000, 0.000000000000000 ) );
#453 = DIRECTION( '', ( 0.000000000000000, 0.000000000000000, 1.00000000000000 ) );
#454 = DIRECTION( '', ( 1.00000000000000, 0.000000000000000, 0.000000000000000 ) );
#455 = SURFACE_STYLE_FILL_AREA( #543 );
#456 = ORIENTED_EDGE( '', *, *, #496, .T. );
#457 = CARTESIAN_POINT( '', ( -1.50000000000000, 0.000000000000000, 11.0000000000000 ) );
#458 = DIRECTION( '', ( 1.68665076409874E-015, 0.000000000000000, 1.00000000000000 ) );
#459 = DIRECTION( '', ( 1.00000000000000, 0.000000000000000, -1.68665076409874E-015 ) );
#460 = SURFACE_STYLE_FILL_AREA( #544 );
#461 = ORIENTED_EDGE( '', *, *, #539, .T. );
#462 = ORIENTED_EDGE( '', *, *, #542, .T. );
#463 = ORIENTED_EDGE( '', *, *, #518, .T. );
#464 = CARTESIAN_POINT( '', ( 0.000000000000000, 0.000000000000000, 0.000000000000000 ) );
#465 = DIRECTION( '', ( -0.000000000000000, -0.000000000000000, 1.00000000000000 ) );
#466 = DIRECTION( '', ( 1.00000000000000, 0.000000000000000, 0.000000000000000 ) );
#467 = SURFACE_STYLE_FILL_AREA( #545 );
#468 = ORIENTED_EDGE( '', *, *, #532, .T. );
#469 = ORIENTED_EDGE( '', *, *, #484, .T. );
#470 = ORIENTED_EDGE( '', *, *, #541, .T. );
#471 = CARTESIAN_POINT( '', ( 0.000000000000000, 0.000000000000000, 0.000000000000000 ) );
#472 = DIRECTION( '', ( -0.000000000000000, -0.000000000000000, 1.00000000000000 ) );
#473 = DIRECTION( '', ( 1.00000000000000, 0.000000000000000, 0.000000000000000 ) );
#474 = SURFACE_STYLE_FILL_AREA( #546 );
#475 = ORIENTED_EDGE( '', *, *, #535, .T. );
#476 = ORIENTED_EDGE( '', *, *, #529, .T. );
#477 = CARTESIAN_POINT( '', ( -9.13133460481728E-015, 0.000000000000000, 5.50000000000000 ) );
#478 = DIRECTION( '', ( 1.68665076409874E-015, -0.000000000000000, 1.00000000000000 ) );
#479 = DIRECTION( '', ( 1.00000000000000, 0.000000000000000, -1.68665076409874E-015 ) );
#480 = FILL_AREA_STYLE( '', ( #547 ) );
#481 = EDGE_CURVE( '', #548, #548, #549, .T. );
#482 = EDGE_CURVE( '', #550, #550, #551, .T. );
#483 = FILL_AREA_STYLE( '', ( #552 ) );
#484 = EDGE_CURVE( '', #553, #554, #555, .T. );
#485 = EDGE_CURVE( '', #556, #553, #557, .T. );
#486 = EDGE_CURVE( '', #558, #556, #559, .T. );
#487 = EDGE_CURVE( '', #558, #560, #561, .T. );
#488 = EDGE_CURVE( '', #554, #560, #562, .T. );
#489 = FILL_AREA_STYLE( '', ( #563 ) );
#490 = EDGE_CURVE( '', #560, #564, #565, .T. );
#491 = EDGE_CURVE( '', #564, #554, #566, .T. );
#492 = FILL_AREA_STYLE( '', ( #567 ) );
#493 = EDGE_CURVE( '', #568, #568, #569, .T. );
#494 = EDGE_CURVE( '', #570, #570, #571, .T. );
#495 = FILL_AREA_STYLE( '', ( #572 ) );
#496 = EDGE_CURVE( '', #573, #573, #574, .T. );
#497 = EDGE_CURVE( '', #575, #575, #576, .F. );
#498 = FILL_AREA_STYLE( '', ( #577 ) );
#499 = EDGE_CURVE( '', #578, #578, #579, .F. );
#500 = EDGE_CURVE( '', #556, #580, #581, .T. );
#501 = EDGE_CURVE( '', #580, #582, #583, .T. );
#502 = EDGE_CURVE( '', #582, #584, #585, .T. );
#503 = EDGE_CURVE( '', #584, #586, #587, .T. );
#504 = EDGE_CURVE( '', #586, #558, #588, .T. );
#505 = FILL_AREA_STYLE( '', ( #589 ) );
#506 = EDGE_CURVE( '', #590, #591, #592, .T. );
#507 = EDGE_CURVE( '', #591, #564, #593, .T. );
#508 = EDGE_CURVE( '', #564, #590, #594, .T. );
#509 = FILL_AREA_STYLE( '', ( #595 ) );
#510 = EDGE_CURVE( '', #596, #597, #598, .T. );
#511 = EDGE_CURVE( '', #582, #596, #599, .T. );
#512 = EDGE_CURVE( '', #580, #600, #601, .T. );
#513 = EDGE_CURVE( '', #597, #600, #602, .T. );
#514 = FILL_AREA_STYLE( '', ( #603 ) );
#515 = FILL_AREA_STYLE( '', ( #604 ) );
#516 = EDGE_CURVE( '', #586, #590, #605, .T. );
#517 = EDGE_CURVE( '', #584, #606, #607, .T. );
#518 = EDGE_CURVE( '', #591, #606, #608, .T. );
#519 = FILL_AREA_STYLE( '', ( #609 ) );
#520 = EDGE_CURVE( '', #610, #610, #611, .T. );
#521 = EDGE_CURVE( '', #612, #612, #613, .T. );
#522 = FILL_AREA_STYLE( '', ( #614 ) );
#523 = CARTESIAN_POINT( '', ( 0.000000000000000, 0.000000000000000, 4.98875813109439 ) );
#524 = FILL_AREA_STYLE( '', ( #615 ) );
#525 = EDGE_CURVE( '', #597, #616, #617, .T. );
#526 = EDGE_CURVE( '', #616, #596, #618, .F. );
#527 = FILL_AREA_STYLE( '', ( #619 ) );
#528 = FILL_AREA_STYLE( '', ( #620 ) );
#529 = EDGE_CURVE( '', #621, #621, #622, .T. );
#530 = FILL_AREA_STYLE( '', ( #623 ) );
#531 = EDGE_CURVE( '', #600, #624, #625, .T. );
#532 = EDGE_CURVE( '', #624, #553, #626, .T. );
#533 = FILL_AREA_STYLE( '', ( #627 ) );
#534 = FILL_AREA_STYLE( '', ( #628 ) );
#535 = EDGE_CURVE( '', #629, #629, #630, .T. );
#536 = FILL_AREA_STYLE( '', ( #631 ) );
#537 = EDGE_CURVE( '', #624, #597, #632, .T. );
#538 = FILL_AREA_STYLE( '', ( #633 ) );
#539 = EDGE_CURVE( '', #606, #616, #634, .F. );
#540 = FILL_AREA_STYLE( '', ( #635 ) );
#541 = EDGE_CURVE( '', #554, #624, #636, .T. );
#542 = EDGE_CURVE( '', #616, #591, #637, .T. );
#543 = FILL_AREA_STYLE( '', ( #638 ) );
#544 = FILL_AREA_STYLE( '', ( #639 ) );
#545 = FILL_AREA_STYLE( '', ( #640 ) );
#546 = FILL_AREA_STYLE( '', ( #641 ) );
#547 = FILL_AREA_STYLE_COLOUR( '', #642 );
#548 = VERTEX_POINT( '', #643 );
#549 = CIRCLE( '', #644, 1.06698729810000 );
#550 = VERTEX_POINT( '', #645 );
#551 = CIRCLE( '', #646, 1.06698729810000 );
#552 = FILL_AREA_STYLE_COLOUR( '', #647 );
#553 = VERTEX_POINT( '', #648 );
#554 = VERTEX_POINT( '', #649 );
#555 = B_SPLINE_CURVE_WITH_KNOTS( '', 3, ( #650, #651, #652, #653, #654, #655, #656, #657 ), .UNSPECIFIED., .F., .F., ( 4, 2, 2, 4 ), ( 0.00302411526438279, 0.00384377470949776, 0.00425360443205524, 0.00466343415461272 ), .UNSPECIFIED. );
#556 = VERTEX_POINT( '', #658 );
#557 = LINE( '', #659, #660 );
#558 = VERTEX_POINT( '', #661 );
#559 = LINE( '', #662, #663 );
#560 = VERTEX_POINT( '', #664 );
#561 = LINE( '', #665, #666 );
#562 = B_SPLINE_CURVE_WITH_KNOTS( '', 3, ( #667, #668, #669, #670, #671, #672, #673, #674 ), .UNSPECIFIED., .F., .F., ( 4, 2, 2, 4 ), ( 0.00466343415461272, 0.00548435711758288, 0.00589481859906796, 0.00630528008055304 ), .UNSPECIFIED. );
#563 = FILL_AREA_STYLE_COLOUR( '', #675 );
#564 = VERTEX_POINT( '', #676 );
#565 = B_SPLINE_CURVE_WITH_KNOTS( '', 3, ( #677, #678, #679, #680, #681, #682, #683, #684 ), .UNSPECIFIED., .F., .F., ( 4, 2, 2, 4 ), ( 0.000000000000000, 0.000823158556616040, 0.00123461061807352, 0.00164606267953101 ), .UNSPECIFIED. );
#566 = CIRCLE( '', #685, 2.75000000000000 );
#567 = FILL_AREA_STYLE_COLOUR( '', #686 );
#568 = VERTEX_POINT( '', #687 );
#569 = CIRCLE( '', #688, 1.22950000000000 );
#570 = VERTEX_POINT( '', #689 );
#571 = CIRCLE( '', #690, 1.42950000000000 );
#572 = FILL_AREA_STYLE_COLOUR( '', #691 );
#573 = VERTEX_POINT( '', #692 );
#574 = CIRCLE( '', #693, 1.30000000000000 );
#575 = VERTEX_POINT( '', #694 );
#576 = CIRCLE( '', #695, 1.50000000000000 );
#577 = FILL_AREA_STYLE_COLOUR( '', #696 );
#578 = VERTEX_POINT( '', #697 );
#579 = CIRCLE( '', #698, 1.26698729810000 );
#580 = VERTEX_POINT( '', #699 );
#581 = LINE( '', #700, #701 );
#582 = VERTEX_POINT( '', #702 );
#583 = LINE( '', #703, #704 );
#584 = VERTEX_POINT( '', #705 );
#585 = LINE( '', #706, #707 );
#586 = VERTEX_POINT( '', #708 );
#587 = LINE( '', #709, #710 );
#588 = LINE( '', #711, #712 );
#589 = FILL_AREA_STYLE_COLOUR( '', #713 );
#590 = VERTEX_POINT( '', #714 );
#591 = VERTEX_POINT( '', #715 );
#592 = B_SPLINE_CURVE_WITH_KNOTS( '', 3, ( #716, #717, #718, #719, #720, #721, #722, #723 ), .UNSPECIFIED., .F., .F., ( 4, 2, 2, 4 ), ( 0.000000000000000, 0.000823158556616039, 0.00123461061807352, 0.00164606267953101 ), .UNSPECIFIED. );
#593 = CIRCLE( '', #724, 2.75000000000000 );
#594 = B_SPLINE_CURVE_WITH_KNOTS( '', 3, ( #725, #726, #727, #728, #729, #730 ), .UNSPECIFIED., .F., .F., ( 4, 2, 4 ), ( 0.00164606267953101, 0.00246320102019253, 0.00328033936085404 ), .UNSPECIFIED. );
#595 = FILL_AREA_STYLE_COLOUR( '', #731 );
#596 = VERTEX_POINT( '', #732 );
#597 = VERTEX_POINT( '', #733 );
#598 = B_SPLINE_CURVE_WITH_KNOTS( '', 3, ( #734, #735, #736, #737, #738, #739, #740, #741 ), .UNSPECIFIED., .F., .F., ( 4, 2, 2, 4 ), ( 0.000000000000000, 0.000823158556616039, 0.00123461061807352, 0.00164606267953101 ), .UNSPECIFIED. );
#599 = LINE( '', #742, #743 );
#600 = VERTEX_POINT( '', #744 );
#601 = LINE( '', #745, #746 );
#602 = B_SPLINE_CURVE_WITH_KNOTS( '', 3, ( #747, #748, #749, #750, #751, #752 ), .UNSPECIFIED., .F., .F., ( 4, 2, 4 ), ( 0.00164606267953101, 0.00246320102019253, 0.00328033936085405 ), .UNSPECIFIED. );
#603 = FILL_AREA_STYLE_COLOUR( '', #753 );
#604 = FILL_AREA_STYLE_COLOUR( '', #754 );
#605 = LINE( '', #755, #756 );
#606 = VERTEX_POINT( '', #757 );
#607 = LINE( '', #758, #759 );
#608 = B_SPLINE_CURVE_WITH_KNOTS( '', 3, ( #760, #761, #762, #763, #764, #765 ), .UNSPECIFIED., .F., .F., ( 4, 2, 4 ), ( 0.00164606267953101, 0.00246320102019253, 0.00328033936085405 ), .UNSPECIFIED. );
#609 = FILL_AREA_STYLE_COLOUR( '', #766 );
#610 = VERTEX_POINT( '', #767 );
#611 = CIRCLE( '', #768, 1.22950000000000 );
#612 = VERTEX_POINT( '', #769 );
#613 = CIRCLE( '', #770, 1.22950000000000 );
#614 = FILL_AREA_STYLE_COLOUR( '', #771 );
#615 = FILL_AREA_STYLE_COLOUR( '', #772 );
#616 = VERTEX_POINT( '', #773 );
#617 = CIRCLE( '', #774, 2.75000000000000 );
#618 = B_SPLINE_CURVE_WITH_KNOTS( '', 3, ( #775, #776, #777, #778, #779, #780, #781, #782 ), .UNSPECIFIED., .F., .F., ( 4, 2, 2, 4 ), ( 0.00302411526438277, 0.00384377470949773, 0.00425360443205521, 0.00466343415461270 ), .UNSPECIFIED. );
#619 = FILL_AREA_STYLE_COLOUR( '', #783 );
#620 = FILL_AREA_STYLE_COLOUR( '', #784 );
#621 = VERTEX_POINT( '', #785 );
#622 = CIRCLE( '', #786, 1.50000000000000 );
#623 = FILL_AREA_STYLE_COLOUR( '', #787 );
#624 = VERTEX_POINT( '', #788 );
#625 = B_SPLINE_CURVE_WITH_KNOTS( '', 3, ( #789, #790, #791, #792, #793, #794, #795, #796 ), .UNSPECIFIED., .F., .F., ( 4, 2, 2, 4 ), ( 0.000000000000000, 0.000823158556616041, 0.00123461061807353, 0.00164606267953101 ), .UNSPECIFIED. );
#626 = B_SPLINE_CURVE_WITH_KNOTS( '', 3, ( #797, #798, #799, #800, #801, #802 ), .UNSPECIFIED., .F., .F., ( 4, 2, 4 ), ( 0.00164606267953101, 0.00246320102019253, 0.00328033936085405 ), .UNSPECIFIED. );
#627 = FILL_AREA_STYLE_COLOUR( '', #803 );
#628 = FILL_AREA_STYLE_COLOUR( '', #804 );
#629 = VERTEX_POINT( '', #805 );
#630 = CIRCLE( '', #806, 1.09378221740000 );
#631 = FILL_AREA_STYLE_COLOUR( '', #807 );
#632 = CIRCLE( '', #808, 2.75000000000000 );
#633 = FILL_AREA_STYLE_COLOUR( '', #809 );
#634 = B_SPLINE_CURVE_WITH_KNOTS( '', 3, ( #810, #811, #812, #813, #814, #815, #816, #817 ), .UNSPECIFIED., .F., .F., ( 4, 2, 2, 4 ), ( 0.00466343415461270, 0.00548435711758286, 0.00589481859906794, 0.00630528008055302 ), .UNSPECIFIED. );
#635 = FILL_AREA_STYLE_COLOUR( '', #818 );
#636 = CIRCLE( '', #819, 2.75000000000000 );
#637 = CIRCLE( '', #820, 2.75000000000000 );
#638 = FILL_AREA_STYLE_COLOUR( '', #821 );
#639 = FILL_AREA_STYLE_COLOUR( '', #822 );
#640 = FILL_AREA_STYLE_COLOUR( '', #823 );
#641 = FILL_AREA_STYLE_COLOUR( '', #824 );
#642 = COLOUR_RGB( '', 0.329411774900000, 0.337254911700000, 0.349019616800000 );
#643 = CARTESIAN_POINT( '', ( -1.06698729810778, 0.000000000000000, 5.44641016151377 ) );
#644 = AXIS2_PLACEMENT_3D( '', #825, #826, #827 );
#645 = CARTESIAN_POINT( '', ( 1.06698729810776, 0.000000000000000, 5.20000000000000 ) );
#646 = AXIS2_PLACEMENT_3D( '', #828, #829, #830 );
#647 = COLOUR_RGB( '', 0.329411774900000, 0.337254911700000, 0.349019616800000 );
#648 = CARTESIAN_POINT( '', ( -1.58771324027147, 2.75000000000000, 0.425426480542948 ) );
#649 = CARTESIAN_POINT( '', ( 6.76041569431720E-015, 2.75000000000000, 0.000000000000000 ) );
#650 = CARTESIAN_POINT( '', ( -1.58771324027163, 2.75000000000001, 0.425426480542724 ) );
#651 = CARTESIAN_POINT( '', ( -1.34130115347395, 2.75000000000001, 0.302220437143875 ) );
#652 = CARTESIAN_POINT( '', ( -1.08230934259622, 2.75000000000001, 0.194431183015583 ) );
#653 = CARTESIAN_POINT( '', ( -0.685731715024729, 2.75000000000001, 0.0813730511187765 ) );
#654 = CARTESIAN_POINT( '', ( -0.551665108834100, 2.75000000000000, 0.0515468261799994 ) );
#655 = CARTESIAN_POINT( '', ( -0.279017029746879, 2.75000000000000, 0.0108297176506659 ) );
#656 = CARTESIAN_POINT( '', ( -0.139107496024030, 2.75000000000000, -2.29677218812740E-014 ) );
#657 = CARTESIAN_POINT( '', ( 1.01110058215950E-014, 2.75000000000000, -2.27981684672644E-014 ) );
#658 = CARTESIAN_POINT( '', ( -1.58771324027147, 2.75000000000000, 5.00000000000000 ) );
#659 = CARTESIAN_POINT( '', ( -1.58771324027147, 2.75000000000000, 5.00000000000000 ) );
#660 = VECTOR( '', #831, 1000.00000000000 );
#661 = CARTESIAN_POINT( '', ( 1.58771324027147, 2.75000000000000, 5.00000000000000 ) );
#662 = CARTESIAN_POINT( '', ( 1.58771324027147, 2.75000000000000, 5.00000000000000 ) );
#663 = VECTOR( '', #832, 1000.00000000000 );
#664 = CARTESIAN_POINT( '', ( 1.58771324027147, 2.75000000000000, 0.425426480542942 ) );
#665 = CARTESIAN_POINT( '', ( 1.58771324027147, 2.75000000000000, 5.00000000000000 ) );
#666 = VECTOR( '', #833, 1000.00000000000 );
#667 = CARTESIAN_POINT( '', ( 1.01110058215950E-014, 2.75000000000000, -2.27981684672644E-014 ) );
#668 = CARTESIAN_POINT( '', ( 0.278643864809980, 2.75000000000000, -2.24506082669752E-014 ) );
#669 = CARTESIAN_POINT( '', ( 0.550356263743472, 2.75000000000000, 0.0428808025257021 ) );
#670 = CARTESIAN_POINT( '', ( 0.949933055829292, 2.75000000000000, 0.156642496175943 ) );
#671 = CARTESIAN_POINT( '', ( 1.08237217782713, 2.75000000000000, 0.202997454069446 ) );
#672 = CARTESIAN_POINT( '', ( 1.33941767674506, 2.75000000000000, 0.306583737636429 ) );
#673 = CARTESIAN_POINT( '', ( 1.46474771457050, 2.75000000000000, 0.363943717692456 ) );
#674 = CARTESIAN_POINT( '', ( 1.58771324027147, 2.75000000000000, 0.425426480542942 ) );
#675 = COLOUR_RGB( '', 0.329411774900000, 0.337254911700000, 0.349019616800000 );
#676 = CARTESIAN_POINT( '', ( 2.38156986040721, 1.37500000000000, 0.000000000000000 ) );
#677 = CARTESIAN_POINT( '', ( 1.58771324027147, 2.75000000000000, 0.425426480542940 ) );
#678 = CARTESIAN_POINT( '', ( 1.71220076095464, 2.53438128926846, 0.300938959859768 ) );
#679 = CARTESIAN_POINT( '', ( 1.83950592286786, 2.31388228076899, 0.195156609575095 ) );
#680 = CARTESIAN_POINT( '', ( 2.03732840800635, 1.97124368562958, 0.0820553069377907 ) );
#681 = CARTESIAN_POINT( '', ( 2.10442550436109, 1.85502810570283, 0.0520308640022548 ) );
#682 = CARTESIAN_POINT( '', ( 2.24147164392648, 1.61765722899441, 0.0109148895814746 ) );
#683 = CARTESIAN_POINT( '', ( 2.31204097171543, 1.49542756780795, -1.38871051702343E-015 ) );
#684 = CARTESIAN_POINT( '', ( 2.38156986040721, 1.37500000000000, -1.30104260698263E-015 ) );
#685 = AXIS2_PLACEMENT_3D( '', #834, #835, #836 );
#686 = COLOUR_RGB( '', 0.329411774900000, 0.337254911700000, 0.349019616800000 );
#687 = CARTESIAN_POINT( '', ( -1.22950000000000, 0.000000000000000, 0.200000000000000 ) );
#688 = AXIS2_PLACEMENT_3D( '', #837, #838, #839 );
#689 = CARTESIAN_POINT( '', ( 1.42950000000000, 0.000000000000000, 0.000000000000000 ) );
#690 = AXIS2_PLACEMENT_3D( '', #840, #841, #842 );
#691 = COLOUR_RGB( '', 0.329411774900000, 0.337254911700000, 0.349019616800000 );
#692 = CARTESIAN_POINT( '', ( 1.30000000000000, 0.000000000000000, 11.0000000000000 ) );
#693 = AXIS2_PLACEMENT_3D( '', #843, #844, #845 );
#694 = CARTESIAN_POINT( '', ( 1.50000000000000, 0.000000000000000, 10.8000000000000 ) );
#695 = AXIS2_PLACEMENT_3D( '', #846, #847, #848 );
#696 = COLOUR_RGB( '', 0.329411774900000, 0.337254911700000, 0.349019616800000 );
#697 = CARTESIAN_POINT( '', ( 1.26698729810776, 0.000000000000000, 5.00000000000000 ) );
#698 = AXIS2_PLACEMENT_3D( '', #849, #850, #851 );
#699 = CARTESIAN_POINT( '', ( -3.17542648054295, 0.000000000000000, 5.00000000000000 ) );
#700 = CARTESIAN_POINT( '', ( -1.58771324027147, 2.75000000000000, 5.00000000000000 ) );
#701 = VECTOR( '', #852, 1000.00000000000 );
#702 = CARTESIAN_POINT( '', ( -1.58771324027147, -2.75000000000000, 5.00000000000000 ) );
#703 = CARTESIAN_POINT( '', ( -3.17542648054295, -2.16840434497101E-016, 5.00000000000000 ) );
#704 = VECTOR( '', #853, 1000.00000000000 );
#705 = CARTESIAN_POINT( '', ( 1.58771324027147, -2.75000000000000, 5.00000000000000 ) );
#706 = CARTESIAN_POINT( '', ( -1.58771324027147, -2.75000000000000, 5.00000000000000 ) );
#707 = VECTOR( '', #854, 1000.00000000000 );
#708 = CARTESIAN_POINT( '', ( 3.17542648054294, 8.67361737988404E-016, 5.00000000000000 ) );
#709 = CARTESIAN_POINT( '', ( 1.58771324027147, -2.75000000000000, 5.00000000000000 ) );
#710 = VECTOR( '', #855, 1000.00000000000 );
#711 = CARTESIAN_POINT( '', ( 3.17542648054294, -2.16840434497101E-016, 5.00000000000000 ) );
#712 = VECTOR( '', #856, 1000.00000000000 );
#713 = COLOUR_RGB( '', 0.329411774900000, 0.337254911700000, 0.349019616800000 );
#714 = CARTESIAN_POINT( '', ( 3.17542648054294, 3.83108067797675E-016, 0.425426480542942 ) );
#715 = CARTESIAN_POINT( '', ( 2.38156986040721, -1.37500000000000, 0.000000000000000 ) );
#716 = CARTESIAN_POINT( '', ( 3.17542648054294, -2.66471963491189E-015, 0.425426480542944 ) );
#717 = CARTESIAN_POINT( '', ( 3.05093895985977, -0.215618710731538, 0.300938959859772 ) );
#718 = CARTESIAN_POINT( '', ( 2.92363379794655, -0.436117719231014, 0.195156609575099 ) );
#719 = CARTESIAN_POINT( '', ( 2.72581131280807, -0.778756314370417, 0.0820553069377952 ) );
#720 = CARTESIAN_POINT( '', ( 2.65871421645332, -0.894971894297171, 0.0520308640022594 ) );
#721 = CARTESIAN_POINT( '', ( 2.52166807688794, -1.13234277100559, 0.0109148895814792 ) );
#722 = CARTESIAN_POINT( '', ( 2.45109874909898, -1.25457243219205, 3.57913771862305E-015 ) );
#723 = CARTESIAN_POINT( '', ( 2.38156986040721, -1.37500000000000, 3.46944695195360E-015 ) );
#724 = AXIS2_PLACEMENT_3D( '', #857, #858, #859 );
#725 = CARTESIAN_POINT( '', ( 2.38156986040721, 1.37500000000000, -1.30104260698263E-015 ) );
#726 = CARTESIAN_POINT( '', ( 2.51965331181192, 1.13583244648256, -1.12824788574273E-015 ) );
#727 = CARTESIAN_POINT( '', ( 2.65538901888924, 0.900731305423360, 0.0422271491653941 ) );
#728 = CARTESIAN_POINT( '', ( 2.92309421098542, 0.437052311262783, 0.194421711542983 ) );
#729 = CARTESIAN_POINT( '', ( 3.05108278530351, 0.215369597755556, 0.301082785303190 ) );
#730 = CARTESIAN_POINT( '', ( 3.17542648054299, -9.03377421741340E-014, 0.425426480542680 ) );
#731 = COLOUR_RGB( '', 0.329411774900000, 0.337254911700000, 0.349019616800000 );
#732 = CARTESIAN_POINT( '', ( -1.58771324027147, -2.75000000000000, 0.425426480542945 ) );
#733 = CARTESIAN_POINT( '', ( -2.38156986040721, -1.37500000000000, 0.000000000000000 ) );
#734 = CARTESIAN_POINT( '', ( -1.58771324027148, -2.75000000000000, 0.425426480542947 ) );
#735 = CARTESIAN_POINT( '', ( -1.71220076095465, -2.53438128926847, 0.300938959859776 ) );
#736 = CARTESIAN_POINT( '', ( -1.83950592286787, -2.31388228076899, 0.195156609575102 ) );
#737 = CARTESIAN_POINT( '', ( -2.03732840800636, -1.97124368562959, 0.0820553069377991 ) );
#738 = CARTESIAN_POINT( '', ( -2.10442550436110, -1.85502810570283, 0.0520308640022635 ) );
#739 = CARTESIAN_POINT( '', ( -2.24147164392648, -1.61765722899441, 0.0109148895814835 ) );
#740 = CARTESIAN_POINT( '', ( -2.31204097171544, -1.49542756780796, 7.78211520289888E-015 ) );
#741 = CARTESIAN_POINT( '', ( -2.38156986040721, -1.37500000000000, 7.69783542464706E-015 ) );
#742 = CARTESIAN_POINT( '', ( -1.58771324027147, -2.75000000000000, 5.00000000000000 ) );
#743 = VECTOR( '', #860, 1000.00000000000 );
#744 = CARTESIAN_POINT( '', ( -3.17542648054295, 0.000000000000000, 0.425426480542949 ) );
#745 = CARTESIAN_POINT( '', ( -3.17542648054295, 0.000000000000000, 5.00000000000000 ) );
#746 = VECTOR( '', #861, 1000.00000000000 );
#747 = CARTESIAN_POINT( '', ( -2.38156986040721, -1.37500000000000, 7.69783542464706E-015 ) );
#748 = CARTESIAN_POINT( '', ( -2.51965331181193, -1.13583244648257, 7.53181696698524E-015 ) );
#749 = CARTESIAN_POINT( '', ( -2.65538901888925, -0.900731305423364, 0.0422271491654027 ) );
#750 = CARTESIAN_POINT( '', ( -2.92309421098543, -0.437052311262785, 0.194421711542992 ) );
#751 = CARTESIAN_POINT( '', ( -3.05108278530352, -0.215369597755558, 0.301082785303199 ) );
#752 = CARTESIAN_POINT( '', ( -3.17542648054300, 8.94231000401723E-014, 0.425426480542689 ) );
#753 = COLOUR_RGB( '', 0.329411774900000, 0.337254911700000, 0.349019616800000 );
#754 = COLOUR_RGB( '', 0.329411774900000, 0.337254911700000, 0.349019616800000 );
#755 = CARTESIAN_POINT( '', ( 3.17542648054294, 8.67361737988404E-016, 5.00000000000000 ) );
#756 = VECTOR( '', #862, 1000.00000000000 );
#757 = CARTESIAN_POINT( '', ( 1.58771324027147, -2.75000000000000, 0.425426480542944 ) );
#758 = CARTESIAN_POINT( '', ( 1.58771324027147, -2.75000000000000, 5.00000000000000 ) );
#759 = VECTOR( '', #863, 1000.00000000000 );
#760 = CARTESIAN_POINT( '', ( 2.38156986040721, -1.37500000000000, 3.46944695195360E-015 ) );
#761 = CARTESIAN_POINT( '', ( 2.24348640900249, -1.61416755351744, 3.23453648124842E-015 ) );
#762 = CARTESIAN_POINT( '', ( 2.10775070192518, -1.84926869457664, 0.0422271491653982 ) );
#763 = CARTESIAN_POINT( '', ( 1.84004550982899, -2.31294768873722, 0.194421711542987 ) );
#764 = CARTESIAN_POINT( '', ( 1.71205693551091, -2.53463040224444, 0.301082785303193 ) );
#765 = CARTESIAN_POINT( '', ( 1.58771324027142, -2.75000000000009, 0.425426480542684 ) );
#766 = COLOUR_RGB( '', 0.329411774900000, 0.337254911700000, 0.349019616800000 );
#767 = CARTESIAN_POINT( '', ( 0.000000000000000, -1.22950000000000, 4.25000000000000 ) );
#768 = AXIS2_PLACEMENT_3D( '', #864, #865, #866 );
#769 = CARTESIAN_POINT( '', ( 0.000000000000000, 1.22950000000000, 2.50000000000000 ) );
#770 = AXIS2_PLACEMENT_3D( '', #867, #868, #869 );
#771 = COLOUR_RGB( '', 0.329411774900000, 0.337254911700000, 0.349019616800000 );
#772 = COLOUR_RGB( '', 0.329411774900000, 0.337254911700000, 0.349019616800000 );
#773 = CARTESIAN_POINT( '', ( 0.000000000000000, -2.75000000000000, 0.000000000000000 ) );
#774 = AXIS2_PLACEMENT_3D( '', #870, #871, #872 );
#775 = CARTESIAN_POINT( '', ( -1.58771324027163, -2.75000000000000, 0.425426480542718 ) );
#776 = CARTESIAN_POINT( '', ( -1.34130115347395, -2.75000000000000, 0.302220437143870 ) );
#777 = CARTESIAN_POINT( '', ( -1.08230934259622, -2.75000000000000, 0.194431183015577 ) );
#778 = CARTESIAN_POINT( '', ( -0.685731715024733, -2.75000000000000, 0.0813730511187717 ) );
#779 = CARTESIAN_POINT( '', ( -0.551665108834105, -2.75000000000000, 0.0515468261799953 ) );
#780 = CARTESIAN_POINT( '', ( -0.279017029746885, -2.75000000000000, 0.0108297176506619 ) );
#781 = CARTESIAN_POINT( '', ( -0.139107496024036, -2.75000000000000, -2.69229422284779E-014 ) );
#782 = CARTESIAN_POINT( '', ( 4.43362687191890E-015, -2.75000000000000, -2.67012950474413E-014 ) );
#783 = COLOUR_RGB( '', 0.329411774900000, 0.337254911700000, 0.349019616800000 );
#784 = COLOUR_RGB( '', 0.184313729400000, 0.749019622800000, 0.580392181900000 );
#785 = CARTESIAN_POINT( '', ( -1.50000000000001, 0.000000000000000, 6.25000000000000 ) );
#786 = AXIS2_PLACEMENT_3D( '', #873, #874, #875 );
#787 = COLOUR_RGB( '', 0.329411774900000, 0.337254911700000, 0.349019616800000 );
#788 = CARTESIAN_POINT( '', ( -2.38156986040721, 1.37500000000000, 0.000000000000000 ) );
#789 = CARTESIAN_POINT( '', ( -3.17542648054295, -2.32850767867882E-015, 0.425426480542947 ) );
#790 = CARTESIAN_POINT( '', ( -3.05093895985977, 0.215618710731534, 0.300938959859774 ) );
#791 = CARTESIAN_POINT( '', ( -2.92363379794656, 0.436117719231010, 0.195156609575100 ) );
#792 = CARTESIAN_POINT( '', ( -2.72581131280806, 0.778756314370414, 0.0820553069377954 ) );
#793 = CARTESIAN_POINT( '', ( -2.65871421645333, 0.894971894297170, 0.0520308640022600 ) );
#794 = CARTESIAN_POINT( '', ( -2.52166807688794, 1.13234277100559, 0.0109148895814795 ) );
#795 = CARTESIAN_POINT( '', ( -2.45109874909898, 1.25457243219205, 3.45843552363931E-015 ) );
#796 = CARTESIAN_POINT( '', ( -2.38156986040721, 1.37500000000000, 3.46944695195359E-015 ) );
#797 = CARTESIAN_POINT( '', ( -2.38156986040721, 1.37500000000000, 3.46944695195359E-015 ) );
#798 = CARTESIAN_POINT( '', ( -2.24348640900249, 1.61416755351744, 3.49146980858223E-015 ) );
#799 = CARTESIAN_POINT( '', ( -2.10775070192517, 1.84926869457664, 0.0422271491653986 ) );
#800 = CARTESIAN_POINT( '', ( -1.84004550982899, 2.31294768873722, 0.194421711542988 ) );
#801 = CARTESIAN_POINT( '', ( -1.71205693551091, 2.53463040224444, 0.301082785303194 ) );
#802 = CARTESIAN_POINT( '', ( -1.58771324027142, 2.75000000000009, 0.425426480542684 ) );
#803 = COLOUR_RGB( '', 0.184313729400000, 0.749019622800000, 0.580392181900000 );
#804 = COLOUR_RGB( '', 0.329411774900000, 0.337254911700000, 0.349019616800000 );
#805 = CARTESIAN_POINT( '', ( 1.09378221735087, 0.000000000000000, 5.54641016151377 ) );
#806 = AXIS2_PLACEMENT_3D( '', #876, #877, #878 );
#807 = COLOUR_RGB( '', 0.329411774900000, 0.337254911700000, 0.349019616800000 );
#808 = AXIS2_PLACEMENT_3D( '', #879, #880, #881 );
#809 = COLOUR_RGB( '', 0.329411774900000, 0.337254911700000, 0.349019616800000 );
#810 = CARTESIAN_POINT( '', ( 4.43362687191890E-015, -2.75000000000000, -2.67012950474413E-014 ) );
#811 = CARTESIAN_POINT( '', ( 0.278643864809975, -2.75000000000000, -2.62467275922533E-014 ) );
#812 = CARTESIAN_POINT( '', ( 0.550356263743468, -2.75000000000000, 0.0428808025256990 ) );
#813 = CARTESIAN_POINT( '', ( 0.949933055829290, -2.75000000000000, 0.156642496175941 ) );
#814 = CARTESIAN_POINT( '', ( 1.08237217782713, -2.75000000000000, 0.202997454069445 ) );
#815 = CARTESIAN_POINT( '', ( 1.33941767674506, -2.75000000000000, 0.306583737636429 ) );
#816 = CARTESIAN_POINT( '', ( 1.46474771457050, -2.75000000000000, 0.363943717692456 ) );
#817 = CARTESIAN_POINT( '', ( 1.58771324027148, -2.75000000000000, 0.425426480542943 ) );
#818 = COLOUR_RGB( '', 0.329411774900000, 0.337254911700000, 0.349019616800000 );
#819 = AXIS2_PLACEMENT_3D( '', #882, #883, #884 );
#820 = AXIS2_PLACEMENT_3D( '', #885, #886, #887 );
#821 = COLOUR_RGB( '', 0.329411774900000, 0.337254911700000, 0.349019616800000 );
#822 = COLOUR_RGB( '', 0.329411774900000, 0.337254911700000, 0.349019616800000 );
#823 = COLOUR_RGB( '', 0.329411774900000, 0.337254911700000, 0.349019616800000 );
#824 = COLOUR_RGB( '', 0.329411774900000, 0.337254911700000, 0.349019616800000 );
#825 = CARTESIAN_POINT( '', ( -9.22172194684800E-015, 0.000000000000000, 5.44641016151377 ) );
#826 = DIRECTION( '', ( -1.68665076409874E-015, 0.000000000000000, -1.00000000000000 ) );
#827 = DIRECTION( '', ( -1.00000000000000, 0.000000000000000, 1.68665076409874E-015 ) );
#828 = CARTESIAN_POINT( '', ( -9.63732983404689E-015, 0.000000000000000, 5.20000000000000 ) );
#829 = DIRECTION( '', ( 0.000000000000000, 0.000000000000000, 1.00000000000000 ) );
#830 = DIRECTION( '', ( 1.00000000000000, 0.000000000000000, 0.000000000000000 ) );
#831 = DIRECTION( '', ( 0.000000000000000, 0.000000000000000, -1.00000000000000 ) );
#832 = DIRECTION( '', ( -1.00000000000000, 2.45833297975171E-015, 0.000000000000000 ) );
#833 = DIRECTION( '', ( 0.000000000000000, 0.000000000000000, -1.00000000000000 ) );
#834 = CARTESIAN_POINT( '', ( 0.000000000000000, 0.000000000000000, 0.000000000000000 ) );
#835 = DIRECTION( '', ( 0.000000000000000, 0.000000000000000, 1.00000000000000 ) );
#836 = DIRECTION( '', ( 1.00000000000000, 0.000000000000000, 0.000000000000000 ) );
#837 = CARTESIAN_POINT( '', ( 0.000000000000000, 0.000000000000000, 0.200000000000000 ) );
#838 = DIRECTION( '', ( 0.000000000000000, 0.000000000000000, -1.00000000000000 ) );
#839 = DIRECTION( '', ( -1.00000000000000, 0.000000000000000, 0.000000000000000 ) );
#840 = CARTESIAN_POINT( '', ( 0.000000000000000, 0.000000000000000, 0.000000000000000 ) );
#841 = DIRECTION( '', ( 0.000000000000000, 0.000000000000000, 1.00000000000000 ) );
#842 = DIRECTION( '', ( 1.00000000000000, 0.000000000000000, 0.000000000000000 ) );
#843 = CARTESIAN_POINT( '', ( 1.45244597725754E-016, 0.000000000000000, 11.0000000000000 ) );
#844 = DIRECTION( '', ( 1.68665076409873E-015, 0.000000000000000, 1.00000000000000 ) );
#845 = DIRECTION( '', ( 1.00000000000000, 0.000000000000000, -1.68665076409873E-015 ) );
#846 = CARTESIAN_POINT( '', ( -1.92085555093990E-016, 0.000000000000000, 10.8000000000000 ) );
#847 = DIRECTION( '', ( 1.68665076409874E-015, 0.000000000000000, 1.00000000000000 ) );
#848 = DIRECTION( '', ( 1.00000000000000, 0.000000000000000, -1.68665076409874E-015 ) );
#849 = CARTESIAN_POINT( '', ( -9.63732983404689E-015, 0.000000000000000, 5.00000000000000 ) );
#850 = DIRECTION( '', ( 0.000000000000000, 0.000000000000000, 1.00000000000000 ) );
#851 = DIRECTION( '', ( 1.00000000000000, 0.000000000000000, 0.000000000000000 ) );
#852 = DIRECTION( '', ( -0.500000000000000, -0.866025403784439, 0.000000000000000 ) );
#853 = DIRECTION( '', ( 0.500000000000000, -0.866025403784438, 0.000000000000000 ) );
#854 = DIRECTION( '', ( 1.00000000000000, 0.000000000000000, 0.000000000000000 ) );
#855 = DIRECTION( '', ( 0.500000000000000, 0.866025403784439, 0.000000000000000 ) );
#856 = DIRECTION( '', ( -0.500000000000000, 0.866025403784439, 0.000000000000000 ) );
#857 = CARTESIAN_POINT( '', ( 0.000000000000000, 0.000000000000000, 0.000000000000000 ) );
#858 = DIRECTION( '', ( 0.000000000000000, 0.000000000000000, 1.00000000000000 ) );
#859 = DIRECTION( '', ( 1.00000000000000, 0.000000000000000, 0.000000000000000 ) );
#860 = DIRECTION( '', ( 0.000000000000000, 0.000000000000000, -1.00000000000000 ) );
#861 = DIRECTION( '', ( 0.000000000000000, 0.000000000000000, -1.00000000000000 ) );
#862 = DIRECTION( '', ( 0.000000000000000, 0.000000000000000, -1.00000000000000 ) );
#863 = DIRECTION( '', ( 0.000000000000000, 0.000000000000000, -1.00000000000000 ) );
#864 = CARTESIAN_POINT( '', ( 0.000000000000000, 0.000000000000000, 4.25000000000000 ) );
#865 = DIRECTION( '', ( 0.000000000000000, 0.000000000000000, 1.00000000000000 ) );
#866 = DIRECTION( '', ( 0.000000000000000, -1.00000000000000, 0.000000000000000 ) );
#867 = CARTESIAN_POINT( '', ( 0.000000000000000, 0.000000000000000, 2.50000000000000 ) );
#868 = DIRECTION( '', ( 0.000000000000000, 0.000000000000000, -1.00000000000000 ) );
#869 = DIRECTION( '', ( 0.000000000000000, 1.00000000000000, 0.000000000000000 ) );
#870 = CARTESIAN_POINT( '', ( 0.000000000000000, 0.000000000000000, 0.000000000000000 ) );
#871 = DIRECTION( '', ( 0.000000000000000, 0.000000000000000, 1.00000000000000 ) );
#872 = DIRECTION( '', ( 1.00000000000000, 0.000000000000000, 0.000000000000000 ) );
#873 = CARTESIAN_POINT( '', ( -7.86634653174323E-015, 0.000000000000000, 6.25000000000000 ) );
#874 = DIRECTION( '', ( -1.68665076409874E-015, 0.000000000000000, -1.00000000000000 ) );
#875 = DIRECTION( '', ( -1.00000000000000, 0.000000000000000, 1.68665076409874E-015 ) );
#876 = CARTESIAN_POINT( '', ( -9.05305687043812E-015, 0.000000000000000, 5.54641016151377 ) );
#877 = DIRECTION( '', ( 1.68665076409874E-015, 0.000000000000000, 1.00000000000000 ) );
#878 = DIRECTION( '', ( 1.00000000000000, 0.000000000000000, -1.68665076409874E-015 ) );
#879 = CARTESIAN_POINT( '', ( 0.000000000000000, 0.000000000000000, 0.000000000000000 ) );
#880 = DIRECTION( '', ( 0.000000000000000, 0.000000000000000, 1.00000000000000 ) );
#881 = DIRECTION( '', ( 1.00000000000000, 0.000000000000000, 0.000000000000000 ) );
#882 = CARTESIAN_POINT( '', ( 0.000000000000000, 0.000000000000000, 0.000000000000000 ) );
#883 = DIRECTION( '', ( 0.000000000000000, 0.000000000000000, 1.00000000000000 ) );
#884 = DIRECTION( '', ( 1.00000000000000, 0.000000000000000, 0.000000000000000 ) );
#885 = CARTESIAN_POINT( '', ( 0.000000000000000, 0.000000000000000, 0.000000000000000 ) );
#886 = DIRECTION( '', ( 0.000000000000000, 0.000000000000000, 1.00000000000000 ) );
#887 = DIRECTION( '', ( 1.00000000000000, 0.000000000000000, 0.000000000000000 ) );
ENDSEC;
END-ISO-10303-21;
